<svg width="100" height="100" viewBox="0 0 100 100" fill="none" xmlns="http://www.w3.org/2000/svg">
<circle cx="50" cy="50" r="50" fill="white"/>
<path fill-rule="evenodd" clip-rule="evenodd" d="M60 42C60 47.5228 55.5228 52 50 52C44.4772 52 40 47.5228 40 42C40 36.4772 44.4772 32 50 32C55.5228 32 60 36.4772 60 42ZM58 42C58 46.4183 54.4183 50 50 50C45.5817 50 42 46.4183 42 42C42 37.5817 45.5817 34 50 34C54.4183 34 58 37.5817 58 42Z" fill="#1CB5BD"/>
<path fill-rule="evenodd" clip-rule="evenodd" d="M43.9141 54.8551C43.9178 54.8625 43.9215 54.8698 43.9252 54.8771C43.9507 54.9281 43.9756 54.9774 44 55.0237H48.0639C48.9708 55.0235 49.4235 55.0236 49.8769 55.0237H49.9017C50.3455 55.0238 50.798 55.0239 51.6851 55.0237H55.7493C55.9775 54.5902 56.4972 53.8981 57 54.0126C58.1296 54.2699 59.2676 54.6285 60.3611 55.0694L60.3944 55.0528L60.4053 55.0748L60.4127 55.0903C64.5281 56.7615 68 59.5962 68 62.5699V68H32V62.5699C32 58.7946 37.5958 55.2434 43 54.0126C43.4413 53.9121 43.7025 54.4331 43.9141 54.8551ZM58.7043 56.5826C58.2749 56.4325 57.8398 56.2965 57.4029 56.176L56.9566 57.0237H51.6851C50.7785 57.0239 50.3313 57.0238 49.8896 57.0237C49.4375 57.0236 48.9912 57.0235 48.0644 57.0237H42.7927L42.3788 56.2375C42.2584 56.2722 42.1382 56.3081 42.0182 56.345C42.0116 56.4109 42.0064 56.4853 42.0033 56.5687C41.9903 56.9137 42.0161 57.3228 42.0729 57.7399C42.1296 58.1557 42.2139 58.5546 42.3077 58.8762C42.3226 58.9273 42.3375 58.9754 42.3521 59.0204C43.8431 59.1948 45 60.4623 45 62C45 63.6569 43.6569 65 42 65C40.3431 65 39 63.6569 39 62C39 60.9331 39.557 59.9962 40.396 59.4644L40.3877 59.4362C40.2628 59.0079 40.1596 58.5109 40.0913 58.0101C40.0498 57.7062 40.02 57.3916 40.0071 57.0819C38.7705 57.6098 37.6185 58.2478 36.6523 58.9527C34.7297 60.3554 34 61.6669 34 62.5699V66H66V62.5699C66 61.6669 65.2703 60.3554 63.3477 58.9527C62.5634 58.3805 61.6567 57.8524 60.6818 57.3915C60.666 57.5994 60.6435 57.8071 60.6158 58.0101C60.5697 58.3485 60.5076 58.6851 60.4336 59H61C61.3788 59 61.725 59.214 61.8944 59.5528L62.8944 61.5528C62.9639 61.6916 63 61.8448 63 62V64C63 64.5523 62.5523 65 62 65H60V63H61V62.2361L60.382 61H57.618L57 62.2361V63H58V65H56C55.4477 65 55 64.5523 55 64V62C55 61.8448 55.0361 61.6916 55.1056 61.5528L56.1056 59.5528C56.275 59.214 56.6212 59 57 59H58.3616C58.3741 58.9609 58.3867 58.9197 58.3994 58.8762C58.4932 58.5546 58.5775 58.1557 58.6342 57.7399C58.6903 57.3284 58.7161 56.9246 58.7043 56.5826ZM43 62C43 62.5742 42.5384 63.0147 42 63.0147C41.4616 63.0147 41 62.5742 41 62C41 61.4258 41.4616 60.9853 42 60.9853C42.5384 60.9853 43 61.4258 43 62Z" fill="#1CB5BD"/>
</svg>
