<svg width="361" height="120" viewBox="0 0 361 120" fill="none" xmlns="http://www.w3.org/2000/svg">
<rect width="75" height="120" rx="5" fill="#E9F7F8"/>
<path d="M105.992 32V16.304H108.776V22.616H115.136V16.304H117.92V32H115.136V25.04H108.776V32H105.992ZM121.666 32V20.216H124.426V32H121.666ZM123.058 18.152C122.562 18.152 122.162 18.008 121.858 17.72C121.554 17.432 121.402 17.048 121.402 16.568C121.402 16.104 121.554 15.728 121.858 15.44C122.162 15.152 122.562 15.008 123.058 15.008C123.554 15.008 123.954 15.152 124.258 15.44C124.562 15.728 124.714 16.104 124.714 16.568C124.714 17.048 124.562 17.432 124.258 17.72C123.954 18.008 123.554 18.152 123.058 18.152ZM132.051 37.208C131.123 37.208 130.283 37.096 129.531 36.872C128.795 36.648 128.211 36.304 127.779 35.84C127.363 35.392 127.155 34.824 127.155 34.136C127.155 33.16 127.715 32.32 128.835 31.616V31.52C128.531 31.328 128.275 31.072 128.067 30.752C127.875 30.432 127.779 30.032 127.779 29.552C127.779 29.088 127.907 28.672 128.163 28.304C128.435 27.92 128.739 27.608 129.075 27.368V27.272C128.675 26.968 128.315 26.544 127.995 26C127.691 25.456 127.539 24.84 127.539 24.152C127.539 23.24 127.755 22.472 128.187 21.848C128.619 21.224 129.187 20.752 129.891 20.432C130.611 20.096 131.379 19.928 132.195 19.928C132.515 19.928 132.819 19.96 133.107 20.024C133.411 20.072 133.683 20.136 133.923 20.216H138.147V22.256H135.987C136.179 22.48 136.339 22.768 136.467 23.12C136.595 23.456 136.659 23.832 136.659 24.248C136.659 25.112 136.459 25.848 136.059 26.456C135.659 27.048 135.123 27.496 134.451 27.8C133.779 28.104 133.027 28.256 132.195 28.256C131.939 28.256 131.675 28.232 131.403 28.184C131.131 28.136 130.859 28.056 130.587 27.944C130.411 28.104 130.267 28.264 130.155 28.424C130.059 28.584 130.011 28.8 130.011 29.072C130.011 29.408 130.147 29.672 130.419 29.864C130.707 30.056 131.211 30.152 131.931 30.152H134.019C135.443 30.152 136.515 30.384 137.235 30.848C137.971 31.296 138.339 32.032 138.339 33.056C138.339 33.824 138.083 34.52 137.571 35.144C137.059 35.784 136.331 36.288 135.387 36.656C134.443 37.024 133.331 37.208 132.051 37.208ZM132.195 26.528C132.755 26.528 133.235 26.32 133.635 25.904C134.035 25.488 134.235 24.904 134.235 24.152C134.235 23.416 134.035 22.848 133.635 22.448C133.251 22.032 132.771 21.824 132.195 21.824C131.619 21.824 131.131 22.024 130.731 22.424C130.331 22.824 130.131 23.4 130.131 24.152C130.131 24.904 130.331 25.488 130.731 25.904C131.131 26.32 131.619 26.528 132.195 26.528ZM132.483 35.408C133.427 35.408 134.195 35.216 134.787 34.832C135.379 34.448 135.675 34.008 135.675 33.512C135.675 33.048 135.491 32.736 135.123 32.576C134.771 32.416 134.259 32.336 133.587 32.336H131.979C131.339 32.336 130.803 32.28 130.371 32.168C129.763 32.632 129.459 33.152 129.459 33.728C129.459 34.256 129.731 34.664 130.275 34.952C130.819 35.256 131.555 35.408 132.483 35.408ZM140.416 32V15.056H143.176V19.424L143.08 21.704C143.576 21.24 144.128 20.832 144.736 20.48C145.344 20.112 146.048 19.928 146.848 19.928C148.112 19.928 149.032 20.336 149.608 21.152C150.184 21.968 150.472 23.12 150.472 24.608V32H147.712V24.968C147.712 23.992 147.568 23.304 147.28 22.904C146.992 22.504 146.52 22.304 145.864 22.304C145.352 22.304 144.896 22.432 144.496 22.688C144.112 22.928 143.672 23.288 143.176 23.768V32H140.416ZM165.876 36.656V32.792L165.972 30.824C165.54 31.24 165.044 31.592 164.484 31.88C163.924 32.152 163.34 32.288 162.732 32.288C161.26 32.288 160.084 31.744 159.204 30.656C158.324 29.568 157.884 28.056 157.884 26.12C157.884 24.84 158.116 23.736 158.58 22.808C159.06 21.88 159.684 21.168 160.452 20.672C161.22 20.176 162.028 19.928 162.876 19.928C163.532 19.928 164.116 20.048 164.628 20.288C165.14 20.512 165.644 20.864 166.14 21.344H166.212L166.452 20.216H168.636V36.656H165.876ZM163.404 30.008C164.284 30.008 165.108 29.568 165.876 28.688V23.192C165.476 22.824 165.076 22.568 164.676 22.424C164.276 22.28 163.876 22.208 163.476 22.208C162.724 22.208 162.076 22.552 161.532 23.24C161.004 23.912 160.74 24.864 160.74 26.096C160.74 27.36 160.972 28.328 161.436 29C161.9 29.672 162.556 30.008 163.404 30.008ZM175.654 32.288C174.39 32.288 173.47 31.88 172.894 31.064C172.318 30.248 172.03 29.096 172.03 27.608V20.216H174.79V27.248C174.79 28.224 174.934 28.912 175.222 29.312C175.51 29.712 175.974 29.912 176.614 29.912C177.126 29.912 177.574 29.784 177.958 29.528C178.358 29.272 178.782 28.856 179.23 28.28V20.216H181.99V32H179.734L179.518 30.272H179.446C178.934 30.88 178.374 31.368 177.766 31.736C177.158 32.104 176.454 32.288 175.654 32.288ZM188.342 32.288C187.318 32.288 186.478 31.968 185.822 31.328C185.182 30.688 184.862 29.856 184.862 28.832C184.862 27.568 185.414 26.592 186.518 25.904C187.622 25.2 189.382 24.72 191.798 24.464C191.782 23.84 191.614 23.304 191.294 22.856C190.99 22.392 190.438 22.16 189.638 22.16C189.062 22.16 188.494 22.272 187.934 22.496C187.39 22.72 186.854 22.992 186.326 23.312L185.318 21.464C185.974 21.048 186.71 20.688 187.526 20.384C188.358 20.08 189.238 19.928 190.166 19.928C191.638 19.928 192.734 20.368 193.454 21.248C194.19 22.112 194.558 23.368 194.558 25.016V32H192.278L192.086 30.704H191.99C191.462 31.152 190.894 31.528 190.286 31.832C189.694 32.136 189.046 32.288 188.342 32.288ZM189.23 30.128C189.71 30.128 190.142 30.016 190.526 29.792C190.926 29.552 191.35 29.232 191.798 28.832V26.192C190.198 26.4 189.086 26.712 188.462 27.128C187.838 27.528 187.526 28.024 187.526 28.616C187.526 29.144 187.686 29.528 188.006 29.768C188.326 30.008 188.734 30.128 189.23 30.128ZM200.549 32.288C199.573 32.288 198.877 31.992 198.461 31.4C198.061 30.808 197.861 30 197.861 28.976V15.056H200.621V29.12C200.621 29.456 200.685 29.696 200.813 29.84C200.941 29.968 201.077 30.032 201.221 30.032C201.285 30.032 201.341 30.032 201.389 30.032C201.453 30.016 201.541 30 201.653 29.984L202.013 32.048C201.853 32.112 201.645 32.168 201.389 32.216C201.149 32.264 200.869 32.288 200.549 32.288ZM204.377 32V20.216H207.137V32H204.377ZM205.769 18.152C205.273 18.152 204.873 18.008 204.569 17.72C204.265 17.432 204.113 17.048 204.113 16.568C204.113 16.104 204.265 15.728 204.569 15.44C204.873 15.152 205.273 15.008 205.769 15.008C206.265 15.008 206.665 15.152 206.969 15.44C207.273 15.728 207.425 16.104 207.425 16.568C207.425 17.048 207.273 17.432 206.969 17.72C206.665 18.008 206.265 18.152 205.769 18.152ZM214.81 32.288C213.45 32.288 212.482 31.896 211.906 31.112C211.346 30.312 211.066 29.28 211.066 28.016V22.4H209.386V20.336L211.21 20.216L211.546 17H213.85V20.216H216.85V22.4H213.85V28.016C213.85 29.392 214.402 30.08 215.506 30.08C215.714 30.08 215.93 30.056 216.154 30.008C216.378 29.944 216.57 29.88 216.73 29.816L217.21 31.856C216.89 31.968 216.522 32.064 216.106 32.144C215.706 32.24 215.274 32.288 214.81 32.288ZM220.122 36.848C219.802 36.848 219.522 36.824 219.282 36.776C219.042 36.728 218.81 36.672 218.586 36.608L219.09 34.448C219.202 34.48 219.33 34.512 219.474 34.544C219.634 34.592 219.786 34.616 219.93 34.616C220.554 34.616 221.05 34.424 221.418 34.04C221.802 33.672 222.09 33.192 222.282 32.6L222.498 31.856L217.866 20.216H220.674L222.714 26C222.89 26.512 223.058 27.056 223.218 27.632C223.394 28.192 223.57 28.752 223.746 29.312H223.842C223.986 28.768 224.13 28.216 224.274 27.656C224.434 27.08 224.586 26.528 224.73 26L226.506 20.216H229.17L224.898 32.528C224.402 33.856 223.802 34.904 223.098 35.672C222.394 36.456 221.402 36.848 220.122 36.848ZM240.938 32.288C239.866 32.288 238.898 32.048 238.034 31.568C237.186 31.072 236.506 30.368 235.994 29.456C235.498 28.528 235.25 27.416 235.25 26.12C235.25 24.808 235.522 23.696 236.066 22.784C236.61 21.856 237.33 21.152 238.226 20.672C239.138 20.176 240.114 19.928 241.154 19.928C241.906 19.928 242.562 20.056 243.122 20.312C243.682 20.568 244.178 20.88 244.61 21.248L243.266 23.048C242.962 22.776 242.65 22.568 242.33 22.424C242.01 22.264 241.666 22.184 241.298 22.184C240.354 22.184 239.578 22.544 238.97 23.264C238.378 23.984 238.082 24.936 238.082 26.12C238.082 27.288 238.37 28.232 238.946 28.952C239.538 29.672 240.298 30.032 241.226 30.032C241.69 30.032 242.122 29.936 242.522 29.744C242.938 29.536 243.314 29.296 243.65 29.024L244.778 30.848C244.234 31.328 243.626 31.688 242.954 31.928C242.282 32.168 241.61 32.288 240.938 32.288ZM249.725 32.288C248.701 32.288 247.861 31.968 247.205 31.328C246.565 30.688 246.245 29.856 246.245 28.832C246.245 27.568 246.797 26.592 247.901 25.904C249.005 25.2 250.765 24.72 253.181 24.464C253.165 23.84 252.997 23.304 252.677 22.856C252.373 22.392 251.821 22.16 251.021 22.16C250.445 22.16 249.877 22.272 249.317 22.496C248.773 22.72 248.237 22.992 247.709 23.312L246.701 21.464C247.357 21.048 248.093 20.688 248.909 20.384C249.741 20.08 250.621 19.928 251.549 19.928C253.021 19.928 254.117 20.368 254.837 21.248C255.573 22.112 255.941 23.368 255.941 25.016V32H253.661L253.469 30.704H253.373C252.845 31.152 252.277 31.528 251.669 31.832C251.077 32.136 250.429 32.288 249.725 32.288ZM250.613 30.128C251.093 30.128 251.525 30.016 251.909 29.792C252.309 29.552 252.733 29.232 253.181 28.832V26.192C251.581 26.4 250.469 26.712 249.845 27.128C249.221 27.528 248.909 28.024 248.909 28.616C248.909 29.144 249.069 29.528 249.389 29.768C249.709 30.008 250.117 30.128 250.613 30.128ZM259.244 32V20.216H261.524L261.716 22.304H261.812C262.228 21.536 262.732 20.952 263.324 20.552C263.916 20.136 264.524 19.928 265.148 19.928C265.708 19.928 266.156 20.008 266.492 20.168L266.012 22.568C265.804 22.504 265.612 22.456 265.436 22.424C265.26 22.392 265.044 22.376 264.788 22.376C264.324 22.376 263.836 22.56 263.324 22.928C262.812 23.28 262.372 23.904 262.004 24.8V32H259.244ZM273.003 32.288C271.915 32.288 270.931 32.048 270.051 31.568C269.171 31.072 268.475 30.368 267.963 29.456C267.451 28.528 267.195 27.416 267.195 26.12C267.195 24.84 267.451 23.736 267.963 22.808C268.491 21.88 269.171 21.168 270.003 20.672C270.835 20.176 271.707 19.928 272.619 19.928C273.691 19.928 274.587 20.168 275.307 20.648C276.027 21.112 276.571 21.768 276.939 22.616C277.307 23.448 277.491 24.416 277.491 25.52C277.491 26.096 277.451 26.544 277.371 26.864H269.883C270.011 27.904 270.387 28.712 271.011 29.288C271.635 29.864 272.419 30.152 273.363 30.152C273.875 30.152 274.347 30.08 274.779 29.936C275.227 29.776 275.667 29.56 276.099 29.288L277.035 31.016C276.475 31.384 275.851 31.688 275.163 31.928C274.475 32.168 273.755 32.288 273.003 32.288ZM269.859 24.992H275.091C275.091 24.08 274.891 23.368 274.491 22.856C274.091 22.328 273.491 22.064 272.691 22.064C272.003 22.064 271.387 22.32 270.843 22.832C270.315 23.328 269.987 24.048 269.859 24.992Z" fill="white"/>
<path d="M108.056 72.288C107.32 72.288 106.784 72.064 106.448 71.616C106.128 71.152 105.968 70.496 105.968 69.648V54.912H107.936V69.792C107.936 70.096 107.992 70.32 108.104 70.464C108.216 70.592 108.344 70.656 108.488 70.656C108.552 70.656 108.608 70.656 108.656 70.656C108.72 70.64 108.808 70.624 108.92 70.608L109.184 72.096C109.056 72.16 108.904 72.208 108.728 72.24C108.552 72.272 108.328 72.288 108.056 72.288ZM116.621 72.288C115.677 72.288 114.789 72.048 113.957 71.568C113.141 71.088 112.477 70.392 111.965 69.48C111.469 68.568 111.221 67.472 111.221 66.192C111.221 64.88 111.469 63.768 111.965 62.856C112.477 61.944 113.141 61.248 113.957 60.768C114.789 60.288 115.677 60.048 116.621 60.048C117.581 60.048 118.469 60.288 119.285 60.768C120.101 61.248 120.757 61.944 121.253 62.856C121.765 63.768 122.021 64.88 122.021 66.192C122.021 67.472 121.765 68.568 121.253 69.48C120.757 70.392 120.101 71.088 119.285 71.568C118.469 72.048 117.581 72.288 116.621 72.288ZM116.621 70.656C117.629 70.656 118.437 70.248 119.045 69.432C119.669 68.6 119.981 67.52 119.981 66.192C119.981 64.848 119.669 63.76 119.045 62.928C118.437 62.096 117.629 61.68 116.621 61.68C115.629 61.68 114.821 62.096 114.197 62.928C113.573 63.76 113.261 64.848 113.261 66.192C113.261 67.52 113.573 68.6 114.197 69.432C114.821 70.248 115.629 70.656 116.621 70.656ZM125.093 72V60.336H126.725L126.893 62.448H126.965C127.365 61.712 127.853 61.128 128.429 60.696C129.005 60.264 129.621 60.048 130.277 60.048C130.741 60.048 131.157 60.128 131.525 60.288L131.141 62.016C130.949 61.952 130.773 61.904 130.613 61.872C130.453 61.84 130.253 61.824 130.013 61.824C129.517 61.824 128.997 62.024 128.453 62.424C127.925 62.824 127.461 63.52 127.061 64.512V72H125.093ZM137.907 72.288C136.867 72.288 135.923 72.048 135.075 71.568C134.227 71.072 133.555 70.368 133.059 69.456C132.563 68.544 132.315 67.456 132.315 66.192C132.315 64.912 132.563 63.816 133.059 62.904C133.571 61.992 134.227 61.288 135.027 60.792C135.827 60.296 136.667 60.048 137.547 60.048C139.035 60.048 140.179 60.544 140.979 61.536C141.795 62.528 142.203 63.856 142.203 65.52C142.203 65.728 142.195 65.936 142.179 66.144C142.179 66.336 142.163 66.504 142.131 66.648H134.259C134.339 67.88 134.723 68.864 135.411 69.6C136.115 70.336 137.027 70.704 138.147 70.704C138.707 70.704 139.219 70.624 139.683 70.464C140.163 70.288 140.619 70.064 141.051 69.792L141.747 71.088C141.251 71.408 140.683 71.688 140.043 71.928C139.419 72.168 138.707 72.288 137.907 72.288ZM134.235 65.232H140.475C140.475 64.048 140.219 63.152 139.707 62.544C139.211 61.92 138.507 61.608 137.595 61.608C136.779 61.608 136.043 61.928 135.387 62.568C134.747 63.192 134.363 64.08 134.235 65.232ZM145.085 72V60.336H146.717L146.885 62.016H146.957C147.469 61.456 148.029 60.992 148.637 60.624C149.245 60.24 149.893 60.048 150.581 60.048C151.477 60.048 152.173 60.248 152.669 60.648C153.181 61.032 153.557 61.576 153.797 62.28C154.405 61.624 155.021 61.088 155.645 60.672C156.269 60.256 156.933 60.048 157.637 60.048C158.837 60.048 159.725 60.44 160.301 61.224C160.893 61.992 161.189 63.12 161.189 64.608V72H159.221V64.872C159.221 63.784 159.045 62.992 158.693 62.496C158.341 62 157.797 61.752 157.061 61.752C156.197 61.752 155.221 62.352 154.133 63.552V72H152.165V64.872C152.165 63.784 151.989 62.992 151.637 62.496C151.285 62 150.733 61.752 149.981 61.752C149.117 61.752 148.141 62.352 147.053 63.552V72H145.085ZM169.788 72V60.336H171.756V72H169.788ZM170.796 57.936C170.412 57.936 170.092 57.824 169.836 57.6C169.596 57.36 169.476 57.04 169.476 56.64C169.476 56.256 169.596 55.944 169.836 55.704C170.092 55.464 170.412 55.344 170.796 55.344C171.18 55.344 171.492 55.464 171.732 55.704C171.988 55.944 172.116 56.256 172.116 56.64C172.116 57.04 171.988 57.36 171.732 57.6C171.492 57.824 171.18 57.936 170.796 57.936ZM175.695 76.92V60.336H177.327L177.495 61.68H177.567C178.095 61.232 178.671 60.848 179.295 60.528C179.935 60.208 180.599 60.048 181.287 60.048C182.791 60.048 183.935 60.592 184.719 61.68C185.503 62.752 185.895 64.192 185.895 66C185.895 67.312 185.655 68.44 185.175 69.384C184.711 70.328 184.095 71.048 183.327 71.544C182.575 72.04 181.751 72.288 180.855 72.288C180.311 72.288 179.767 72.168 179.223 71.928C178.695 71.688 178.159 71.36 177.615 70.944L177.663 72.984V76.92H175.695ZM180.519 70.632C181.479 70.632 182.271 70.224 182.895 69.408C183.535 68.576 183.855 67.44 183.855 66C183.855 64.72 183.615 63.688 183.135 62.904C182.671 62.104 181.887 61.704 180.783 61.704C180.287 61.704 179.783 61.84 179.271 62.112C178.775 62.384 178.239 62.776 177.663 63.288V69.408C178.191 69.856 178.703 70.176 179.199 70.368C179.695 70.544 180.135 70.632 180.519 70.632ZM192.055 72.288C191.223 72.288 190.431 72.136 189.679 71.832C188.927 71.512 188.271 71.128 187.711 70.68L188.695 69.36C189.207 69.76 189.735 70.096 190.279 70.368C190.823 70.624 191.439 70.752 192.127 70.752C192.895 70.752 193.471 70.576 193.855 70.224C194.239 69.856 194.431 69.424 194.431 68.928C194.431 68.528 194.295 68.192 194.023 67.92C193.767 67.648 193.431 67.424 193.015 67.248C192.615 67.056 192.199 66.88 191.767 66.72C191.223 66.512 190.687 66.28 190.159 66.024C189.631 65.752 189.199 65.408 188.863 64.992C188.527 64.56 188.359 64.016 188.359 63.36C188.359 62.416 188.711 61.632 189.415 61.008C190.135 60.368 191.127 60.048 192.391 60.048C193.111 60.048 193.783 60.176 194.407 60.432C195.031 60.688 195.567 61 196.015 61.368L195.055 62.616C194.655 62.312 194.239 62.064 193.807 61.872C193.375 61.68 192.903 61.584 192.391 61.584C191.655 61.584 191.111 61.752 190.759 62.088C190.423 62.424 190.255 62.816 190.255 63.264C190.255 63.632 190.375 63.936 190.615 64.176C190.855 64.4 191.167 64.6 191.551 64.776C191.935 64.936 192.343 65.104 192.775 65.28C193.335 65.488 193.887 65.728 194.431 66C194.975 66.256 195.423 66.608 195.775 67.056C196.143 67.488 196.327 68.072 196.327 68.808C196.327 69.432 196.159 70.008 195.823 70.536C195.503 71.064 195.023 71.488 194.383 71.808C193.759 72.128 192.983 72.288 192.055 72.288ZM202.47 72.288C201.238 72.288 200.334 71.904 199.758 71.136C199.182 70.352 198.894 69.216 198.894 67.728V60.336H200.886V67.464C200.886 68.552 201.054 69.344 201.39 69.84C201.742 70.336 202.302 70.584 203.07 70.584C203.678 70.584 204.214 70.432 204.678 70.128C205.158 69.808 205.67 69.304 206.214 68.616V60.336H208.182V72H206.55L206.382 70.176H206.31C205.766 70.816 205.19 71.328 204.582 71.712C203.974 72.096 203.27 72.288 202.47 72.288ZM212.116 72V60.336H213.748L213.916 62.016H213.988C214.5 61.456 215.06 60.992 215.668 60.624C216.276 60.24 216.924 60.048 217.612 60.048C218.508 60.048 219.204 60.248 219.7 60.648C220.212 61.032 220.588 61.576 220.828 62.28C221.436 61.624 222.052 61.088 222.676 60.672C223.3 60.256 223.964 60.048 224.668 60.048C225.868 60.048 226.756 60.44 227.332 61.224C227.924 61.992 228.22 63.12 228.22 64.608V72H226.252V64.872C226.252 63.784 226.076 62.992 225.724 62.496C225.372 62 224.828 61.752 224.092 61.752C223.228 61.752 222.252 62.352 221.164 63.552V72H219.196V64.872C219.196 63.784 219.02 62.992 218.668 62.496C218.316 62 217.764 61.752 217.012 61.752C216.148 61.752 215.172 62.352 214.084 63.552V72H212.116ZM240.804 72.288C239.348 72.288 238.18 71.76 237.3 70.704C236.42 69.632 235.98 68.128 235.98 66.192C235.98 64.928 236.212 63.84 236.676 62.928C237.156 62 237.78 61.288 238.548 60.792C239.332 60.296 240.164 60.048 241.044 60.048C241.716 60.048 242.3 60.168 242.796 60.408C243.292 60.648 243.796 60.976 244.308 61.392L244.212 59.4V54.912H246.204V72H244.572L244.404 70.632H244.332C243.884 71.08 243.356 71.472 242.748 71.808C242.14 72.128 241.492 72.288 240.804 72.288ZM241.236 70.632C242.26 70.632 243.252 70.096 244.212 69.024V62.928C243.716 62.48 243.236 62.168 242.772 61.992C242.324 61.8 241.86 61.704 241.38 61.704C240.756 61.704 240.188 61.896 239.676 62.28C239.18 62.648 238.78 63.168 238.476 63.84C238.172 64.496 238.02 65.272 238.02 66.168C238.02 67.56 238.3 68.656 238.86 69.456C239.42 70.24 240.212 70.632 241.236 70.632ZM254.668 72.288C253.724 72.288 252.836 72.048 252.004 71.568C251.188 71.088 250.524 70.392 250.012 69.48C249.516 68.568 249.268 67.472 249.268 66.192C249.268 64.88 249.516 63.768 250.012 62.856C250.524 61.944 251.188 61.248 252.004 60.768C252.836 60.288 253.724 60.048 254.668 60.048C255.628 60.048 256.516 60.288 257.332 60.768C258.148 61.248 258.804 61.944 259.3 62.856C259.812 63.768 260.068 64.88 260.068 66.192C260.068 67.472 259.812 68.568 259.3 69.48C258.804 70.392 258.148 71.088 257.332 71.568C256.516 72.048 255.628 72.288 254.668 72.288ZM254.668 70.656C255.676 70.656 256.484 70.248 257.092 69.432C257.716 68.6 258.028 67.52 258.028 66.192C258.028 64.848 257.716 63.76 257.092 62.928C256.484 62.096 255.676 61.68 254.668 61.68C253.676 61.68 252.868 62.096 252.244 62.928C251.62 63.76 251.308 64.848 251.308 66.192C251.308 67.52 251.62 68.6 252.244 69.432C252.868 70.248 253.676 70.656 254.668 70.656ZM265.228 72.288C264.492 72.288 263.956 72.064 263.62 71.616C263.3 71.152 263.14 70.496 263.14 69.648V54.912H265.108V69.792C265.108 70.096 265.164 70.32 265.276 70.464C265.388 70.592 265.516 70.656 265.66 70.656C265.724 70.656 265.78 70.656 265.828 70.656C265.892 70.64 265.98 70.624 266.092 70.608L266.356 72.096C266.228 72.16 266.076 72.208 265.9 72.24C265.724 72.272 265.5 72.288 265.228 72.288ZM273.793 72.288C272.849 72.288 271.961 72.048 271.129 71.568C270.313 71.088 269.649 70.392 269.137 69.48C268.641 68.568 268.393 67.472 268.393 66.192C268.393 64.88 268.641 63.768 269.137 62.856C269.649 61.944 270.313 61.248 271.129 60.768C271.961 60.288 272.849 60.048 273.793 60.048C274.753 60.048 275.641 60.288 276.457 60.768C277.273 61.248 277.929 61.944 278.425 62.856C278.937 63.768 279.193 64.88 279.193 66.192C279.193 67.472 278.937 68.568 278.425 69.48C277.929 70.392 277.273 71.088 276.457 71.568C275.641 72.048 274.753 72.288 273.793 72.288ZM273.793 70.656C274.801 70.656 275.609 70.248 276.217 69.432C276.841 68.6 277.153 67.52 277.153 66.192C277.153 64.848 276.841 63.76 276.217 62.928C275.609 62.096 274.801 61.68 273.793 61.68C272.801 61.68 271.993 62.096 271.369 62.928C270.745 63.76 270.433 64.848 270.433 66.192C270.433 67.52 270.745 68.6 271.369 69.432C271.993 70.248 272.801 70.656 273.793 70.656ZM282.265 72V60.336H283.897L284.065 62.448H284.137C284.537 61.712 285.025 61.128 285.601 60.696C286.177 60.264 286.793 60.048 287.449 60.048C287.913 60.048 288.329 60.128 288.697 60.288L288.313 62.016C288.121 61.952 287.945 61.904 287.785 61.872C287.625 61.84 287.425 61.824 287.185 61.824C286.689 61.824 286.169 62.024 285.625 62.424C285.097 62.824 284.633 63.52 284.233 64.512V72H282.265ZM298.438 72.288C297.606 72.288 296.814 72.136 296.062 71.832C295.31 71.512 294.654 71.128 294.094 70.68L295.078 69.36C295.59 69.76 296.118 70.096 296.662 70.368C297.206 70.624 297.822 70.752 298.51 70.752C299.278 70.752 299.854 70.576 300.238 70.224C300.622 69.856 300.814 69.424 300.814 68.928C300.814 68.528 300.678 68.192 300.406 67.92C300.15 67.648 299.814 67.424 299.398 67.248C298.998 67.056 298.582 66.88 298.15 66.72C297.606 66.512 297.07 66.28 296.542 66.024C296.014 65.752 295.582 65.408 295.246 64.992C294.91 64.56 294.742 64.016 294.742 63.36C294.742 62.416 295.094 61.632 295.798 61.008C296.518 60.368 297.51 60.048 298.774 60.048C299.494 60.048 300.166 60.176 300.79 60.432C301.414 60.688 301.95 61 302.398 61.368L301.438 62.616C301.038 62.312 300.622 62.064 300.19 61.872C299.758 61.68 299.286 61.584 298.774 61.584C298.038 61.584 297.494 61.752 297.142 62.088C296.806 62.424 296.638 62.816 296.638 63.264C296.638 63.632 296.758 63.936 296.998 64.176C297.238 64.4 297.55 64.6 297.934 64.776C298.318 64.936 298.726 65.104 299.158 65.28C299.718 65.488 300.27 65.728 300.814 66C301.358 66.256 301.806 66.608 302.158 67.056C302.526 67.488 302.71 68.072 302.71 68.808C302.71 69.432 302.542 70.008 302.206 70.536C301.886 71.064 301.406 71.488 300.766 71.808C300.142 72.128 299.366 72.288 298.438 72.288ZM305.445 72V60.336H307.413V72H305.445ZM306.453 57.936C306.069 57.936 305.749 57.824 305.493 57.6C305.253 57.36 305.133 57.04 305.133 56.64C305.133 56.256 305.253 55.944 305.493 55.704C305.749 55.464 306.069 55.344 306.453 55.344C306.837 55.344 307.149 55.464 307.389 55.704C307.645 55.944 307.773 56.256 307.773 56.64C307.773 57.04 307.645 57.36 307.389 57.6C307.149 57.824 306.837 57.936 306.453 57.936ZM315.023 72.288C313.775 72.288 312.903 71.928 312.407 71.208C311.927 70.488 311.687 69.552 311.687 68.4V61.944H309.959V60.456L311.783 60.336L312.023 57.072H313.679V60.336H316.823V61.944H313.679V68.424C313.679 69.144 313.807 69.704 314.063 70.104C314.335 70.488 314.807 70.68 315.479 70.68C315.687 70.68 315.911 70.648 316.151 70.584C316.391 70.504 316.607 70.432 316.799 70.368L317.183 71.856C316.863 71.968 316.511 72.064 316.127 72.144C315.759 72.24 315.391 72.288 315.023 72.288ZM108.656 102.288C107.68 102.288 106.864 102 106.208 101.424C105.568 100.832 105.248 100.016 105.248 98.976C105.248 97.696 105.816 96.72 106.952 96.048C108.104 95.36 109.92 94.88 112.4 94.608C112.4 94.112 112.328 93.64 112.184 93.192C112.056 92.744 111.816 92.384 111.464 92.112C111.128 91.824 110.64 91.68 110 91.68C109.328 91.68 108.696 91.808 108.104 92.064C107.512 92.32 106.984 92.608 106.52 92.928L105.752 91.56C106.296 91.208 106.96 90.872 107.744 90.552C108.544 90.216 109.408 90.048 110.336 90.048C111.76 90.048 112.792 90.488 113.432 91.368C114.072 92.232 114.392 93.392 114.392 94.848V102H112.76L112.592 100.608H112.52C111.976 101.056 111.376 101.448 110.72 101.784C110.08 102.12 109.392 102.288 108.656 102.288ZM109.232 100.704C109.792 100.704 110.32 100.568 110.816 100.296C111.312 100.024 111.84 99.64 112.4 99.144V95.904C110.464 96.144 109.104 96.504 108.32 96.984C107.552 97.464 107.168 98.08 107.168 98.832C107.168 99.488 107.368 99.968 107.768 100.272C108.168 100.56 108.656 100.704 109.232 100.704ZM118.062 102V90.336H119.694L119.862 92.016H119.934C120.446 91.456 121.006 90.992 121.614 90.624C122.222 90.24 122.87 90.048 123.558 90.048C124.454 90.048 125.15 90.248 125.646 90.648C126.158 91.032 126.534 91.576 126.774 92.28C127.382 91.624 127.998 91.088 128.622 90.672C129.246 90.256 129.91 90.048 130.614 90.048C131.814 90.048 132.702 90.44 133.278 91.224C133.87 91.992 134.166 93.12 134.166 94.608V102H132.198V94.872C132.198 93.784 132.022 92.992 131.67 92.496C131.318 92 130.774 91.752 130.038 91.752C129.174 91.752 128.198 92.352 127.11 93.552V102H125.142V94.872C125.142 93.784 124.966 92.992 124.614 92.496C124.262 92 123.71 91.752 122.958 91.752C122.094 91.752 121.118 92.352 120.03 93.552V102H118.062ZM142.688 102.288C141.648 102.288 140.704 102.048 139.856 101.568C139.008 101.072 138.336 100.368 137.84 99.456C137.344 98.544 137.096 97.456 137.096 96.192C137.096 94.912 137.344 93.816 137.84 92.904C138.352 91.992 139.008 91.288 139.808 90.792C140.608 90.296 141.448 90.048 142.328 90.048C143.816 90.048 144.96 90.544 145.76 91.536C146.576 92.528 146.984 93.856 146.984 95.52C146.984 95.728 146.976 95.936 146.96 96.144C146.96 96.336 146.944 96.504 146.912 96.648H139.04C139.12 97.88 139.504 98.864 140.192 99.6C140.896 100.336 141.808 100.704 142.928 100.704C143.488 100.704 144 100.624 144.464 100.464C144.944 100.288 145.4 100.064 145.832 99.792L146.528 101.088C146.032 101.408 145.464 101.688 144.824 101.928C144.2 102.168 143.488 102.288 142.688 102.288ZM139.016 95.232H145.256C145.256 94.048 145 93.152 144.488 92.544C143.992 91.92 143.288 91.608 142.376 91.608C141.56 91.608 140.824 91.928 140.168 92.568C139.528 93.192 139.144 94.08 139.016 95.232ZM153.304 102.288C152.056 102.288 151.184 101.928 150.688 101.208C150.208 100.488 149.968 99.552 149.968 98.4V91.944H148.24V90.456L150.064 90.336L150.304 87.072H151.96V90.336H155.104V91.944H151.96V98.424C151.96 99.144 152.088 99.704 152.344 100.104C152.616 100.488 153.088 100.68 153.76 100.68C153.968 100.68 154.192 100.648 154.432 100.584C154.672 100.504 154.888 100.432 155.08 100.368L155.464 101.856C155.144 101.968 154.792 102.064 154.408 102.144C154.04 102.24 153.672 102.288 153.304 102.288ZM157.546 106.08L157.066 104.928C157.754 104.624 158.29 104.216 158.674 103.704C159.058 103.208 159.242 102.64 159.226 102C159.194 102.016 159.154 102.024 159.105 102.024C159.058 102.024 159.018 102.024 158.986 102.024C158.602 102.024 158.266 101.912 157.978 101.688C157.706 101.448 157.57 101.104 157.57 100.656C157.57 100.224 157.714 99.888 158.002 99.648C158.29 99.392 158.634 99.264 159.034 99.264C159.546 99.264 159.946 99.472 160.234 99.888C160.538 100.304 160.69 100.872 160.69 101.592C160.69 102.616 160.41 103.512 159.85 104.28C159.29 105.064 158.522 105.664 157.546 106.08ZM168.232 102.288C167.208 102.288 166.28 102.048 165.448 101.568C164.616 101.088 163.96 100.392 163.48 99.48C163 98.568 162.76 97.472 162.76 96.192C162.76 94.88 163.016 93.768 163.528 92.856C164.056 91.944 164.744 91.248 165.592 90.768C166.456 90.288 167.384 90.048 168.376 90.048C169.144 90.048 169.8 90.184 170.344 90.456C170.904 90.728 171.384 91.048 171.784 91.416L170.776 92.712C170.44 92.408 170.08 92.16 169.696 91.968C169.328 91.776 168.912 91.68 168.448 91.68C167.744 91.68 167.112 91.872 166.552 92.256C166.008 92.624 165.576 93.152 165.256 93.84C164.952 94.512 164.8 95.296 164.8 96.192C164.8 97.52 165.128 98.6 165.784 99.432C166.456 100.248 167.328 100.656 168.4 100.656C168.944 100.656 169.448 100.544 169.912 100.32C170.376 100.08 170.784 99.8 171.136 99.48L172 100.8C171.472 101.264 170.888 101.632 170.248 101.904C169.608 102.16 168.936 102.288 168.232 102.288ZM178.59 102.288C177.646 102.288 176.758 102.048 175.926 101.568C175.11 101.088 174.446 100.392 173.934 99.48C173.438 98.568 173.19 97.472 173.19 96.192C173.19 94.88 173.438 93.768 173.934 92.856C174.446 91.944 175.11 91.248 175.926 90.768C176.758 90.288 177.646 90.048 178.59 90.048C179.55 90.048 180.438 90.288 181.254 90.768C182.07 91.248 182.726 91.944 183.222 92.856C183.734 93.768 183.99 94.88 183.99 96.192C183.99 97.472 183.734 98.568 183.222 99.48C182.726 100.392 182.07 101.088 181.254 101.568C180.438 102.048 179.55 102.288 178.59 102.288ZM178.59 100.656C179.598 100.656 180.406 100.248 181.014 99.432C181.638 98.6 181.95 97.52 181.95 96.192C181.95 94.848 181.638 93.76 181.014 92.928C180.406 92.096 179.598 91.68 178.59 91.68C177.598 91.68 176.79 92.096 176.166 92.928C175.542 93.76 175.23 94.848 175.23 96.192C175.23 97.52 175.542 98.6 176.166 99.432C176.79 100.248 177.598 100.656 178.59 100.656ZM187.062 102V90.336H188.694L188.862 92.016H188.934C189.494 91.456 190.086 90.992 190.71 90.624C191.334 90.24 192.046 90.048 192.846 90.048C194.078 90.048 194.974 90.44 195.534 91.224C196.11 91.992 196.398 93.12 196.398 94.608V102H194.43V94.872C194.43 93.784 194.254 92.992 193.902 92.496C193.55 92 192.99 91.752 192.222 91.752C191.63 91.752 191.094 91.904 190.614 92.208C190.15 92.512 189.622 92.96 189.03 93.552V102H187.062ZM200.187 102V90.336H201.819L201.987 92.016H202.059C202.619 91.456 203.211 90.992 203.835 90.624C204.459 90.24 205.171 90.048 205.971 90.048C207.203 90.048 208.099 90.44 208.659 91.224C209.235 91.992 209.523 93.12 209.523 94.608V102H207.555V94.872C207.555 93.784 207.379 92.992 207.027 92.496C206.675 92 206.115 91.752 205.347 91.752C204.755 91.752 204.219 91.904 203.739 92.208C203.275 92.512 202.747 92.96 202.155 93.552V102H200.187ZM218.04 102.288C217 102.288 216.056 102.048 215.208 101.568C214.36 101.072 213.688 100.368 213.192 99.456C212.696 98.544 212.448 97.456 212.448 96.192C212.448 94.912 212.696 93.816 213.192 92.904C213.704 91.992 214.36 91.288 215.16 90.792C215.96 90.296 216.8 90.048 217.68 90.048C219.168 90.048 220.312 90.544 221.112 91.536C221.928 92.528 222.336 93.856 222.336 95.52C222.336 95.728 222.328 95.936 222.312 96.144C222.312 96.336 222.296 96.504 222.264 96.648H214.392C214.472 97.88 214.856 98.864 215.544 99.6C216.248 100.336 217.16 100.704 218.28 100.704C218.84 100.704 219.352 100.624 219.816 100.464C220.296 100.288 220.752 100.064 221.184 99.792L221.88 101.088C221.384 101.408 220.816 101.688 220.176 101.928C219.552 102.168 218.84 102.288 218.04 102.288ZM214.368 95.232H220.608C220.608 94.048 220.352 93.152 219.84 92.544C219.344 91.92 218.64 91.608 217.728 91.608C216.912 91.608 216.176 91.928 215.52 92.568C214.88 93.192 214.496 94.08 214.368 95.232ZM229.826 102.288C228.802 102.288 227.874 102.048 227.042 101.568C226.21 101.088 225.554 100.392 225.074 99.48C224.594 98.568 224.354 97.472 224.354 96.192C224.354 94.88 224.61 93.768 225.122 92.856C225.65 91.944 226.338 91.248 227.186 90.768C228.05 90.288 228.978 90.048 229.97 90.048C230.738 90.048 231.394 90.184 231.938 90.456C232.498 90.728 232.978 91.048 233.378 91.416L232.37 92.712C232.034 92.408 231.674 92.16 231.29 91.968C230.922 91.776 230.506 91.68 230.042 91.68C229.338 91.68 228.706 91.872 228.146 92.256C227.602 92.624 227.17 93.152 226.85 93.84C226.546 94.512 226.394 95.296 226.394 96.192C226.394 97.52 226.722 98.6 227.378 99.432C228.05 100.248 228.922 100.656 229.994 100.656C230.538 100.656 231.042 100.544 231.506 100.32C231.97 100.08 232.378 99.8 232.73 99.48L233.594 100.8C233.066 101.264 232.482 101.632 231.842 101.904C231.202 102.16 230.53 102.288 229.826 102.288ZM239.601 102.288C238.353 102.288 237.481 101.928 236.985 101.208C236.505 100.488 236.265 99.552 236.265 98.4V91.944H234.537V90.456L236.361 90.336L236.601 87.072H238.257V90.336H241.401V91.944H238.257V98.424C238.257 99.144 238.385 99.704 238.641 100.104C238.913 100.488 239.385 100.68 240.057 100.68C240.265 100.68 240.489 100.648 240.729 100.584C240.969 100.504 241.185 100.432 241.377 100.368L241.761 101.856C241.441 101.968 241.089 102.064 240.705 102.144C240.337 102.24 239.969 102.288 239.601 102.288ZM248.246 102.288C247.302 102.288 246.414 102.048 245.582 101.568C244.766 101.088 244.102 100.392 243.59 99.48C243.094 98.568 242.846 97.472 242.846 96.192C242.846 94.88 243.094 93.768 243.59 92.856C244.102 91.944 244.766 91.248 245.582 90.768C246.414 90.288 247.302 90.048 248.246 90.048C249.206 90.048 250.094 90.288 250.91 90.768C251.726 91.248 252.382 91.944 252.878 92.856C253.39 93.768 253.646 94.88 253.646 96.192C253.646 97.472 253.39 98.568 252.878 99.48C252.382 100.392 251.726 101.088 250.91 101.568C250.094 102.048 249.206 102.288 248.246 102.288ZM248.246 100.656C249.254 100.656 250.062 100.248 250.67 99.432C251.294 98.6 251.606 97.52 251.606 96.192C251.606 94.848 251.294 93.76 250.67 92.928C250.062 92.096 249.254 91.68 248.246 91.68C247.254 91.68 246.446 92.096 245.822 92.928C245.198 93.76 244.886 94.848 244.886 96.192C244.886 97.52 245.198 98.6 245.822 99.432C246.446 100.248 247.254 100.656 248.246 100.656ZM256.718 102V90.336H258.35L258.518 92.448H258.59C258.99 91.712 259.478 91.128 260.054 90.696C260.63 90.264 261.246 90.048 261.902 90.048C262.366 90.048 262.782 90.128 263.15 90.288L262.766 92.016C262.574 91.952 262.398 91.904 262.238 91.872C262.078 91.84 261.878 91.824 261.638 91.824C261.142 91.824 260.622 92.024 260.078 92.424C259.55 92.824 259.086 93.52 258.686 94.512V102H256.718ZM272.531 102.288C271.555 102.288 270.739 102 270.083 101.424C269.443 100.832 269.123 100.016 269.123 98.976C269.123 97.696 269.691 96.72 270.827 96.048C271.979 95.36 273.795 94.88 276.275 94.608C276.275 94.112 276.203 93.64 276.059 93.192C275.931 92.744 275.691 92.384 275.339 92.112C275.003 91.824 274.515 91.68 273.875 91.68C273.203 91.68 272.571 91.808 271.979 92.064C271.387 92.32 270.859 92.608 270.395 92.928L269.627 91.56C270.171 91.208 270.835 90.872 271.619 90.552C272.419 90.216 273.283 90.048 274.211 90.048C275.635 90.048 276.667 90.488 277.307 91.368C277.947 92.232 278.267 93.392 278.267 94.848V102H276.635L276.467 100.608H276.395C275.851 101.056 275.251 101.448 274.595 101.784C273.955 102.12 273.267 102.288 272.531 102.288ZM273.107 100.704C273.667 100.704 274.195 100.568 274.691 100.296C275.187 100.024 275.715 99.64 276.275 99.144V95.904C274.339 96.144 272.979 96.504 272.195 96.984C271.427 97.464 271.043 98.08 271.043 98.832C271.043 99.488 271.243 99.968 271.643 100.272C272.043 100.56 272.531 100.704 273.107 100.704ZM285.921 102.288C284.465 102.288 283.297 101.76 282.417 100.704C281.537 99.632 281.097 98.128 281.097 96.192C281.097 94.928 281.329 93.84 281.793 92.928C282.273 92 282.897 91.288 283.665 90.792C284.449 90.296 285.281 90.048 286.161 90.048C286.833 90.048 287.417 90.168 287.913 90.408C288.409 90.648 288.913 90.976 289.425 91.392L289.329 89.4V84.912H291.321V102H289.689L289.521 100.632H289.449C289.001 101.08 288.473 101.472 287.865 101.808C287.257 102.128 286.609 102.288 285.921 102.288ZM286.353 100.632C287.377 100.632 288.369 100.096 289.329 99.024V92.928C288.833 92.48 288.353 92.168 287.889 91.992C287.441 91.8 286.977 91.704 286.497 91.704C285.873 91.704 285.305 91.896 284.793 92.28C284.297 92.648 283.897 93.168 283.593 93.84C283.289 94.496 283.137 95.272 283.137 96.168C283.137 97.56 283.417 98.656 283.977 99.456C284.537 100.24 285.329 100.632 286.353 100.632ZM295.249 102V90.336H297.217V102H295.249ZM296.257 87.936C295.873 87.936 295.553 87.824 295.297 87.6C295.057 87.36 294.937 87.04 294.937 86.64C294.937 86.256 295.057 85.944 295.297 85.704C295.553 85.464 295.873 85.344 296.257 85.344C296.641 85.344 296.953 85.464 297.193 85.704C297.449 85.944 297.577 86.256 297.577 86.64C297.577 87.04 297.449 87.36 297.193 87.6C296.953 87.824 296.641 87.936 296.257 87.936ZM305.764 102.288C304.74 102.288 303.812 102.048 302.98 101.568C302.148 101.088 301.492 100.392 301.012 99.48C300.532 98.568 300.292 97.472 300.292 96.192C300.292 94.88 300.548 93.768 301.06 92.856C301.588 91.944 302.276 91.248 303.124 90.768C303.988 90.288 304.916 90.048 305.908 90.048C306.676 90.048 307.332 90.184 307.876 90.456C308.436 90.728 308.916 91.048 309.316 91.416L308.308 92.712C307.972 92.408 307.612 92.16 307.228 91.968C306.86 91.776 306.444 91.68 305.98 91.68C305.276 91.68 304.644 91.872 304.084 92.256C303.54 92.624 303.108 93.152 302.788 93.84C302.484 94.512 302.332 95.296 302.332 96.192C302.332 97.52 302.66 98.6 303.316 99.432C303.988 100.248 304.86 100.656 305.932 100.656C306.476 100.656 306.98 100.544 307.444 100.32C307.908 100.08 308.316 99.8 308.668 99.48L309.532 100.8C309.004 101.264 308.42 101.632 307.78 101.904C307.14 102.16 306.468 102.288 305.764 102.288ZM312.101 102V90.336H314.069V102H312.101ZM313.109 87.936C312.725 87.936 312.405 87.824 312.149 87.6C311.909 87.36 311.789 87.04 311.789 86.64C311.789 86.256 311.909 85.944 312.149 85.704C312.405 85.464 312.725 85.344 313.109 85.344C313.493 85.344 313.805 85.464 314.045 85.704C314.301 85.944 314.429 86.256 314.429 86.64C314.429 87.04 314.301 87.36 314.045 87.6C313.805 87.824 313.493 87.936 313.109 87.936ZM318.007 106.92V90.336H319.639L319.807 91.68H319.879C320.407 91.232 320.983 90.848 321.607 90.528C322.247 90.208 322.911 90.048 323.599 90.048C325.103 90.048 326.247 90.592 327.031 91.68C327.815 92.752 328.207 94.192 328.207 96C328.207 97.312 327.967 98.44 327.487 99.384C327.023 100.328 326.407 101.048 325.639 101.544C324.887 102.04 324.063 102.288 323.167 102.288C322.623 102.288 322.079 102.168 321.535 101.928C321.007 101.688 320.471 101.36 319.927 100.944L319.975 102.984V106.92H318.007ZM322.831 100.632C323.791 100.632 324.583 100.224 325.207 99.408C325.847 98.576 326.167 97.44 326.167 96C326.167 94.72 325.927 93.688 325.447 92.904C324.983 92.104 324.199 91.704 323.095 91.704C322.599 91.704 322.095 91.84 321.583 92.112C321.087 92.384 320.551 92.776 319.975 93.288V99.408C320.503 99.856 321.015 100.176 321.511 100.368C322.007 100.544 322.447 100.632 322.831 100.632ZM333.679 102.288C332.703 102.288 331.887 102 331.231 101.424C330.591 100.832 330.271 100.016 330.271 98.976C330.271 97.696 330.839 96.72 331.975 96.048C333.127 95.36 334.943 94.88 337.423 94.608C337.423 94.112 337.351 93.64 337.207 93.192C337.079 92.744 336.839 92.384 336.487 92.112C336.151 91.824 335.663 91.68 335.023 91.68C334.351 91.68 333.719 91.808 333.127 92.064C332.535 92.32 332.007 92.608 331.543 92.928L330.775 91.56C331.319 91.208 331.983 90.872 332.767 90.552C333.567 90.216 334.431 90.048 335.359 90.048C336.783 90.048 337.815 90.488 338.455 91.368C339.095 92.232 339.415 93.392 339.415 94.848V102H337.783L337.615 100.608H337.543C336.999 101.056 336.399 101.448 335.743 101.784C335.103 102.12 334.415 102.288 333.679 102.288ZM334.255 100.704C334.815 100.704 335.343 100.568 335.839 100.296C336.335 100.024 336.863 99.64 337.423 99.144V95.904C335.487 96.144 334.127 96.504 333.343 96.984C332.575 97.464 332.191 98.08 332.191 98.832C332.191 99.488 332.391 99.968 332.791 100.272C333.191 100.56 333.679 100.704 334.255 100.704ZM343.421 102V91.944H341.837V90.456L343.421 90.336V88.488C343.421 87.304 343.693 86.368 344.237 85.68C344.797 84.976 345.661 84.624 346.829 84.624C347.197 84.624 347.549 84.664 347.885 84.744C348.221 84.808 348.517 84.896 348.773 85.008L348.341 86.52C347.909 86.328 347.469 86.232 347.021 86.232C345.933 86.232 345.389 86.984 345.389 88.488V90.336H347.861V91.944H345.389V102H343.421ZM353.701 107.376C352.277 107.376 351.117 107.104 350.221 106.56C349.325 106.016 348.877 105.24 348.877 104.232C348.877 103.736 349.029 103.256 349.333 102.792C349.637 102.344 350.053 101.944 350.581 101.592V101.496C350.293 101.32 350.045 101.072 349.837 100.752C349.645 100.432 349.549 100.048 349.549 99.6C349.549 99.104 349.685 98.672 349.957 98.304C350.229 97.936 350.517 97.648 350.821 97.44V97.344C350.437 97.024 350.085 96.592 349.765 96.048C349.461 95.504 349.309 94.888 349.309 94.2C349.309 93.352 349.509 92.616 349.909 91.992C350.309 91.368 350.845 90.888 351.517 90.552C352.189 90.216 352.917 90.048 353.701 90.048C354.021 90.048 354.325 90.08 354.613 90.144C354.901 90.192 355.149 90.256 355.357 90.336H359.413V91.848H357.013C357.285 92.104 357.509 92.448 357.685 92.88C357.877 93.296 357.973 93.752 357.973 94.248C357.973 95.08 357.781 95.8 357.397 96.408C357.013 97.016 356.501 97.488 355.861 97.824C355.221 98.144 354.501 98.304 353.701 98.304C353.077 98.304 352.493 98.168 351.949 97.896C351.741 98.072 351.565 98.272 351.421 98.496C351.277 98.704 351.205 98.968 351.205 99.288C351.205 99.656 351.349 99.96 351.637 100.2C351.941 100.44 352.485 100.56 353.269 100.56H355.525C356.885 100.56 357.901 100.784 358.573 101.232C359.261 101.664 359.605 102.368 359.605 103.344C359.605 104.064 359.365 104.728 358.885 105.336C358.405 105.944 357.725 106.432 356.845 106.8C355.965 107.184 354.917 107.376 353.701 107.376ZM353.701 96.984C354.373 96.984 354.949 96.736 355.429 96.24C355.925 95.728 356.173 95.048 356.173 94.2C356.173 93.352 355.933 92.688 355.453 92.208C354.973 91.728 354.389 91.488 353.701 91.488C353.013 91.488 352.429 91.728 351.949 92.208C351.469 92.688 351.229 93.352 351.229 94.2C351.229 95.048 351.469 95.728 351.949 96.24C352.445 96.736 353.029 96.984 353.701 96.984ZM353.989 106.008C355.109 106.008 356.005 105.76 356.677 105.264C357.349 104.784 357.685 104.24 357.685 103.632C357.685 103.088 357.477 102.712 357.061 102.504C356.661 102.296 356.085 102.192 355.333 102.192H353.317C353.093 102.192 352.845 102.176 352.573 102.144C352.317 102.112 352.061 102.064 351.805 102C351.389 102.304 351.085 102.624 350.893 102.96C350.701 103.296 350.605 103.632 350.605 103.968C350.605 104.592 350.901 105.088 351.493 105.456C352.101 105.824 352.933 106.008 353.989 106.008Z" fill="#E9F7F8"/>
<path d="M45 72.6667L50.0987 67.568C50.2487 67.4181 50.3331 67.2148 50.3333 67.0027V60C50.3333 59.4696 50.1226 58.9609 49.7475 58.5858C49.3725 58.2107 48.8638 58 48.3333 58V58C47.8029 58 47.2942 58.2107 46.9191 58.5858C46.544 58.9609 46.3333 59.4696 46.3333 60V66" stroke="black" stroke-width="1.5" stroke-linecap="round" stroke-linejoin="round"/>
<path d="M45.0003 67.3333L46.1443 66.1893C46.2044 66.1293 46.2521 66.058 46.2846 65.9795C46.3171 65.9011 46.3337 65.8169 46.3337 65.732C46.3335 65.6121 46.3 65.4946 46.2369 65.3927C46.1738 65.2907 46.0836 65.2083 45.9763 65.1547L45.3857 64.86C44.8852 64.6098 44.3188 64.5233 43.7665 64.6128C43.2143 64.7023 42.7041 64.9632 42.3083 65.3587L41.115 66.552C40.6149 67.052 40.3338 67.7301 40.3337 68.4373V72.6667M29.0003 72.6667L23.9017 67.568C23.7516 67.4181 23.6672 67.2148 23.667 67.0027V60C23.667 59.4696 23.8777 58.9609 24.2528 58.5858C24.6279 58.2107 25.1366 58 25.667 58V58C26.1974 58 26.7061 58.2107 27.0812 58.5858C27.4563 58.9609 27.667 59.4696 27.667 60V66" stroke="black" stroke-width="1.5" stroke-linecap="round" stroke-linejoin="round"/>
<path d="M29.0003 67.3334L27.8563 66.1894C27.7963 66.1293 27.7487 66.058 27.7162 65.9795C27.6837 65.9011 27.667 65.817 27.667 65.732V65.732C27.667 65.488 27.8057 65.2654 28.0243 65.1547L28.615 64.86C29.1154 64.6098 29.6818 64.5234 30.2341 64.6129C30.7864 64.7023 31.2965 64.9633 31.6923 65.3587L32.8857 66.552C33.3858 67.052 33.6668 67.7302 33.667 68.4374V72.6667M39.223 62H34.7777V58.8894H31.667V54.444H34.7777V51.3334H39.223V54.444H42.3337V58.8894H39.223V62V62Z" stroke="black" stroke-width="1.5" stroke-linecap="round" stroke-linejoin="round"/>
</svg>
