<svg width="32" height="32" viewBox="0 0 32 32" fill="none" xmlns="http://www.w3.org/2000/svg">
<g clip-path="url(#clip0_42_145)">
<path d="M21.7078 14.292C21.8009 14.3848 21.8748 14.4952 21.9252 14.6167C21.9756 14.7382 22.0016 14.8684 22.0016 15C22.0016 15.1315 21.9756 15.2617 21.9252 15.3832C21.8748 15.5047 21.8009 15.6151 21.7078 15.708L15.7078 21.708C15.6149 21.8011 15.5046 21.875 15.3831 21.9254C15.2616 21.9758 15.1313 22.0017 14.9998 22.0017C14.8683 22.0017 14.738 21.9758 14.6165 21.9254C14.495 21.875 14.3847 21.8011 14.2918 21.708L11.2918 18.708C11.1988 18.615 11.1251 18.5046 11.0748 18.3831C11.0244 18.2616 10.9985 18.1314 10.9985 18C10.9985 17.8685 11.0244 17.7383 11.0748 17.6168C11.1251 17.4953 11.1988 17.3849 11.2918 17.292C11.4796 17.1042 11.7342 16.9987 11.9998 16.9987C12.1313 16.9987 12.2615 17.0246 12.383 17.0749C12.5044 17.1252 12.6148 17.199 12.7078 17.292L14.9998 19.586L20.2918 14.292C20.3847 14.1988 20.495 14.1249 20.6165 14.0745C20.738 14.0241 20.8683 13.9982 20.9998 13.9982C21.1313 13.9982 21.2616 14.0241 21.3831 14.0745C21.5046 14.1249 21.6149 14.1988 21.7078 14.292Z" fill="#E9F7F8"/>
<path d="M7 0C7.26522 0 7.51957 0.105357 7.70711 0.292893C7.89464 0.48043 8 0.734784 8 1V2H24V1C24 0.734784 24.1054 0.48043 24.2929 0.292893C24.4804 0.105357 24.7348 0 25 0C25.2652 0 25.5196 0.105357 25.7071 0.292893C25.8946 0.48043 26 0.734784 26 1V2H28C29.0609 2 30.0783 2.42143 30.8284 3.17157C31.5786 3.92172 32 4.93913 32 6V28C32 29.0609 31.5786 30.0783 30.8284 30.8284C30.0783 31.5786 29.0609 32 28 32H4C2.93913 32 1.92172 31.5786 1.17157 30.8284C0.421427 30.0783 0 29.0609 0 28V6C0 4.93913 0.421427 3.92172 1.17157 3.17157C1.92172 2.42143 2.93913 2 4 2H6V1C6 0.734784 6.10536 0.48043 6.29289 0.292893C6.48043 0.105357 6.73478 0 7 0V0ZM2 8V28C2 28.5304 2.21071 29.0391 2.58579 29.4142C2.96086 29.7893 3.46957 30 4 30H28C28.5304 30 29.0391 29.7893 29.4142 29.4142C29.7893 29.0391 30 28.5304 30 28V8H2Z" fill="#E9F7F8"/>
</g>
<defs>
<clipPath id="clip0_42_145">
<rect width="32" height="32" fill="white"/>
</clipPath>
</defs>
</svg>
