<svg width="100" height="100" viewBox="0 0 100 100" fill="none" xmlns="http://www.w3.org/2000/svg">
<circle cx="50" cy="50" r="50" fill="white"/>
<path fill-rule="evenodd" clip-rule="evenodd" d="M36.4893 58V62C36.4893 63.1046 37.3847 64 38.4893 64H68.4893C69.5938 64 70.4893 63.1046 70.4893 62V46C70.4893 44.8954 69.5938 44 68.4893 44H65.9999V47.6687C66.1079 47.8295 66.2314 47.9798 66.3691 48.1174C66.6476 48.396 66.9784 48.617 67.3423 48.7677C67.706 48.9184 68.0957 48.9959 68.4893 48.9961V59C68.1012 59.0023 67.7173 59.0798 67.3587 59.2284C66.9947 59.3791 66.664 59.6001 66.3854 59.8787C66.1068 60.1573 65.8859 60.488 65.7351 60.8519C65.5843 61.2159 65.5067 61.606 65.5067 62H41.4851C41.4803 61.6188 41.4029 61.2419 41.257 60.8895C41.1062 60.5256 40.8852 60.1949 40.6066 59.9163C40.3281 59.6377 39.9974 59.4167 39.6334 59.266C39.2706 59.1157 38.8819 59.0381 38.4893 59.0376V58H36.4893Z" fill="#1CB5BD"/>
<path fill-rule="evenodd" clip-rule="evenodd" d="M47 48C48.1046 48 49 47.1046 49 46C49 44.8954 48.1046 44 47 44C45.8954 44 45 44.8954 45 46C45 47.1046 45.8954 48 47 48ZM47 50C49.2091 50 51 48.2091 51 46C51 43.7909 49.2091 42 47 42C44.7909 42 43 43.7909 43 46C43 48.2091 44.7909 50 47 50Z" fill="#1CB5BD"/>
<path fill-rule="evenodd" clip-rule="evenodd" d="M32 36C30.8954 36 30 36.8954 30 38V54C30 55.1046 30.8954 56 32 56H62C63.1046 56 64 55.1046 64 54V38C64 36.8954 63.1046 36 62 36H32ZM34.9982 38H59.0011C59.0016 38.3926 59.0792 38.7814 59.2295 39.1441C59.3802 39.5081 59.6012 39.8388 59.8798 40.1174C60.1584 40.396 60.4891 40.617 60.853 40.7677C61.2167 40.9184 61.6064 40.9959 62 40.9961V51.0001C61.612 51.0023 61.228 51.0798 60.8694 51.2284C60.5054 51.3791 60.1747 51.6001 59.8961 51.8787C59.6176 52.1573 59.3966 52.488 59.2458 52.8519C59.0951 53.2159 59.0175 53.606 59.0175 54H34.9958C34.991 53.6188 34.9137 53.2419 34.7677 52.8895C34.6169 52.5256 34.3959 52.1949 34.1174 51.9163C33.8388 51.6377 33.5081 51.4167 33.1441 51.266C32.7813 51.1157 32.3926 51.0381 32 51.0376V41C32.3933 40.9998 32.7828 40.9222 33.1462 40.7716C33.5102 40.6209 33.8409 40.3999 34.1195 40.1213C34.3981 39.8427 34.619 39.512 34.7698 39.1481C34.9206 38.7841 34.9982 38.394 34.9982 38Z" fill="#1CB5BD"/>
</svg>
