<svg width="100" height="100" viewBox="0 0 100 100" fill="none" xmlns="http://www.w3.org/2000/svg">
<circle cx="50" cy="50" r="50" fill="white"/>
<mask id="mask0_391_6" style="mask-type:alpha" maskUnits="userSpaceOnUse" x="30" y="36" width="40" height="29">
<path d="M49 38H31V40H49V38Z" fill="white"/>
<path fill-rule="evenodd" clip-rule="evenodd" d="M49 42H32V63H31C30.4477 63 30 63.4477 30 64C30 64.5523 30.4477 65 31 65H69C69.5523 65 70 64.5523 70 64C70 63.4477 69.5523 63 69 63H68V42H65V44H66V63H63V51H55V63H34V44H49V42ZM61 63H57V53H61V63Z" fill="white"/>
<path d="M65 40V38H69V40H65Z" fill="white"/>
<path fill-rule="evenodd" clip-rule="evenodd" d="M37 58V51H52V58H53V60H36V58H37ZM39 53H50V58H39V53Z" fill="white"/>
<path d="M61 36H53C51.8954 36 51 36.8954 51 38V46C51 47.1046 51.8954 48 53 48H61C62.1046 48 63 47.1046 63 46V38C63 36.8954 62.1046 36 61 36Z" fill="white"/>
</mask>
<g mask="url(#mask0_391_6)">
<path d="M58 40V39H56V40H58ZM55 41H54V43H55V41ZM32 39V44H34V39H32ZM66 39V44H68V39H66ZM56 40V44H58V40H56ZM55 43H59V41H55V43ZM49 38H51V36H49V38ZM31 38V36H29V38H31ZM31 40H29V42H31V40ZM49 40V42H51V40H49ZM49 42H51V40H49V42ZM32 42V40H30V42H32ZM32 63V65H34V63H32ZM68 63H66V65H68V63ZM68 42H70V40H68V42ZM65 42V40H63V42H65ZM65 44H63V46H65V44ZM66 44H68V42H66V44ZM66 63V65H68V63H66ZM63 63H61V65H63V63ZM63 51H65V49H63V51ZM55 51V49H53V51H55ZM55 63V65H57V63H55ZM34 63H32V65H34V63ZM34 44V42H32V44H34ZM49 44V46H51V44H49ZM65 38V36H63V38H65ZM65 40H63V42H65V40ZM69 38H71V36H69V38ZM69 40V42H71V40H69ZM57 63H55V65H57V63ZM61 63V65H63V63H61ZM57 53V51H55V53H57ZM61 53H63V51H61V53ZM50 53H52V51H50V53ZM39 53V51H37V53H39ZM50 58V60H52V58H50ZM39 58H37V60H39V58ZM37 58V60H39V58H37ZM37 51V49H35V51H37ZM52 51H54V49H52V51ZM52 58H50V60H52V58ZM53 58H55V56H53V58ZM53 60V62H55V60H53ZM36 60H34V62H36V60ZM36 58V56H34V58H36ZM49 36H31V40H49V36ZM29 38V40H33V38H29ZM31 42H49V38H31V42ZM51 40V38H47V40H51ZM31 65H32V61H31V65ZM32 64C32 64.5523 31.5523 65 31 65V61C29.3432 61 28 62.3431 28 64H32ZM31 63C31.5523 63 32 63.4477 32 64H28C28 65.6569 29.3432 67 31 67V63ZM68 64C68 63.4477 68.4477 63 69 63V67C70.6569 67 72 65.6569 72 64H68ZM69 65C68.4477 65 68 64.5523 68 64H72C72 62.3431 70.6569 61 69 61V65ZM68 65H69V61H68V65ZM63 42V44H67V42H63ZM65 46H66V42H65V46ZM64 44V63H68V44H64ZM66 61H63V65H66V61ZM55 61H34V65H55V61ZM36 63V44H32V63H36ZM34 46H49V42H34V46ZM51 44V42H47V44H51ZM63 38V40H67V38H63ZM69 36H65V40H69V36ZM71 40V38H67V40H71ZM65 42H69V38H65V42ZM57 65H61V61H57V65ZM55 53V63H59V53H55ZM61 51H57V55H61V51ZM63 63V53H59V63H63ZM50 51H39V55H50V51ZM52 58V53H48V58H52ZM39 60H50V56H39V60ZM37 53V58H41V53H37ZM53 56H52V60H53V56ZM55 60V58H51V60H55ZM34 58V60H38V58H34ZM37 56H36V60H37V56ZM53 38H61V34H53V38ZM61 38V46H65V38H61ZM61 46H53V50H61V46ZM53 46V38H49V46H53ZM53 46H49C49 48.2091 50.7909 50 53 50V46ZM61 46V50C63.2091 50 65 48.2091 65 46H61ZM61 38H65C65 35.7909 63.2091 34 61 34V38ZM53 34C50.7909 34 49 35.7909 49 38H53V34ZM32 44H49V40H32V44ZM34 63V42H30V63H34ZM69 63H31V67H69V63ZM66 42V63H70V42H66ZM65 44H68V40H65V44ZM65 63V51H61V63H65ZM63 49H55V53H63V49ZM53 51V63H57V51H53ZM35 51V58H39V51H35ZM52 49H37V53H52V49ZM54 58V51H50V58H54ZM36 62H53V58H36V62Z" fill="#1CB5BD"/>
</g>
</svg>
