<svg width="363" height="120" viewBox="0 0 363 120" fill="none" xmlns="http://www.w3.org/2000/svg">
<rect width="75" height="120" rx="5" fill="#E9F7F8"/>
<path d="M109.912 39V37.392C111.336 36.016 112.56 34.792 113.584 33.72C114.624 32.632 115.424 31.648 115.984 30.768C116.544 29.872 116.824 29.04 116.824 28.272C116.824 27.472 116.608 26.832 116.176 26.352C115.744 25.872 115.12 25.632 114.304 25.632C113.712 25.632 113.168 25.8 112.672 26.136C112.192 26.472 111.744 26.872 111.328 27.336L109.792 25.8C110.496 25.048 111.224 24.472 111.976 24.072C112.728 23.656 113.624 23.448 114.664 23.448C116.136 23.448 117.304 23.872 118.168 24.72C119.048 25.568 119.488 26.704 119.488 28.128C119.488 29.024 119.232 29.944 118.72 30.888C118.224 31.816 117.552 32.768 116.704 33.744C115.872 34.72 114.952 35.744 113.944 36.816C114.344 36.784 114.776 36.752 115.24 36.72C115.704 36.672 116.12 36.648 116.488 36.648H120.232V39H109.912ZM124.473 32.928H128.481V29.472C128.481 29.024 128.497 28.496 128.529 27.888C128.561 27.28 128.585 26.752 128.601 26.304H128.505C128.313 26.704 128.113 27.096 127.905 27.48C127.697 27.864 127.481 28.264 127.257 28.68L124.473 32.928ZM128.481 39V35.064H121.737V33.192L127.785 23.736H131.073V32.928H132.993V35.064H131.073V39H128.481ZM140.166 39V22.056H142.926V26.424L142.83 28.704C143.326 28.24 143.878 27.832 144.486 27.48C145.094 27.112 145.798 26.928 146.598 26.928C147.862 26.928 148.782 27.336 149.358 28.152C149.934 28.968 150.222 30.12 150.222 31.608V39H147.462V31.968C147.462 30.992 147.318 30.304 147.03 29.904C146.742 29.504 146.27 29.304 145.614 29.304C145.102 29.304 144.646 29.432 144.246 29.688C143.862 29.928 143.422 30.288 142.926 30.768V39H140.166ZM158.373 39.288C157.397 39.288 156.485 39.048 155.637 38.568C154.789 38.072 154.101 37.368 153.573 36.456C153.045 35.528 152.781 34.416 152.781 33.12C152.781 31.808 153.045 30.696 153.573 29.784C154.101 28.856 154.789 28.152 155.637 27.672C156.485 27.176 157.397 26.928 158.373 26.928C159.365 26.928 160.285 27.176 161.133 27.672C161.981 28.152 162.669 28.856 163.197 29.784C163.725 30.696 163.989 31.808 163.989 33.12C163.989 34.416 163.725 35.528 163.197 36.456C162.669 37.368 161.981 38.072 161.133 38.568C160.285 39.048 159.365 39.288 158.373 39.288ZM158.373 37.032C159.237 37.032 159.917 36.672 160.413 35.952C160.909 35.232 161.157 34.288 161.157 33.12C161.157 31.936 160.909 30.984 160.413 30.264C159.917 29.544 159.237 29.184 158.373 29.184C157.509 29.184 156.829 29.544 156.333 30.264C155.853 30.984 155.613 31.936 155.613 33.12C155.613 34.288 155.853 35.232 156.333 35.952C156.829 36.672 157.509 37.032 158.373 37.032ZM170.225 39.288C168.961 39.288 168.041 38.88 167.465 38.064C166.889 37.248 166.601 36.096 166.601 34.608V27.216H169.361V34.248C169.361 35.224 169.505 35.912 169.793 36.312C170.081 36.712 170.545 36.912 171.185 36.912C171.697 36.912 172.145 36.784 172.529 36.528C172.929 36.272 173.353 35.856 173.801 35.28V27.216H176.561V39H174.305L174.089 37.272H174.017C173.505 37.88 172.945 38.368 172.337 38.736C171.729 39.104 171.025 39.288 170.225 39.288ZM180.057 39V27.216H182.337L182.529 29.304H182.625C183.041 28.536 183.545 27.952 184.137 27.552C184.729 27.136 185.337 26.928 185.961 26.928C186.521 26.928 186.969 27.008 187.305 27.168L186.825 29.568C186.617 29.504 186.425 29.456 186.249 29.424C186.073 29.392 185.857 29.376 185.601 29.376C185.137 29.376 184.649 29.56 184.137 29.928C183.625 30.28 183.185 30.904 182.817 31.8V39H180.057ZM192.157 39.288C191.357 39.288 190.557 39.136 189.757 38.832C188.957 38.512 188.269 38.12 187.693 37.656L188.989 35.88C189.517 36.28 190.045 36.6 190.573 36.84C191.101 37.08 191.661 37.2 192.253 37.2C192.893 37.2 193.365 37.064 193.669 36.792C193.973 36.52 194.125 36.184 194.125 35.784C194.125 35.448 193.997 35.176 193.741 34.968C193.501 34.744 193.189 34.552 192.805 34.392C192.421 34.216 192.021 34.048 191.605 33.888C191.093 33.696 190.581 33.464 190.069 33.192C189.573 32.904 189.165 32.544 188.845 32.112C188.525 31.664 188.365 31.112 188.365 30.456C188.365 29.416 188.749 28.568 189.517 27.912C190.285 27.256 191.325 26.928 192.637 26.928C193.469 26.928 194.213 27.072 194.869 27.36C195.525 27.648 196.093 27.976 196.573 28.344L195.301 30.024C194.885 29.72 194.461 29.48 194.029 29.304C193.613 29.112 193.173 29.016 192.709 29.016C192.117 29.016 191.677 29.144 191.389 29.4C191.101 29.64 190.957 29.944 190.957 30.312C190.957 30.776 191.197 31.128 191.677 31.368C192.157 31.608 192.717 31.84 193.357 32.064C193.901 32.256 194.429 32.496 194.941 32.784C195.453 33.056 195.877 33.416 196.213 33.864C196.565 34.312 196.741 34.904 196.741 35.64C196.741 36.648 196.349 37.512 195.565 38.232C194.781 38.936 193.645 39.288 192.157 39.288ZM207.298 39.288C206.498 39.288 205.698 39.136 204.898 38.832C204.098 38.512 203.41 38.12 202.834 37.656L204.13 35.88C204.658 36.28 205.186 36.6 205.714 36.84C206.242 37.08 206.802 37.2 207.394 37.2C208.034 37.2 208.506 37.064 208.81 36.792C209.114 36.52 209.266 36.184 209.266 35.784C209.266 35.448 209.138 35.176 208.882 34.968C208.642 34.744 208.33 34.552 207.946 34.392C207.562 34.216 207.162 34.048 206.746 33.888C206.234 33.696 205.722 33.464 205.21 33.192C204.714 32.904 204.306 32.544 203.986 32.112C203.666 31.664 203.506 31.112 203.506 30.456C203.506 29.416 203.89 28.568 204.658 27.912C205.426 27.256 206.466 26.928 207.778 26.928C208.61 26.928 209.354 27.072 210.01 27.36C210.666 27.648 211.234 27.976 211.714 28.344L210.442 30.024C210.026 29.72 209.602 29.48 209.17 29.304C208.754 29.112 208.314 29.016 207.85 29.016C207.258 29.016 206.818 29.144 206.53 29.4C206.242 29.64 206.098 29.944 206.098 30.312C206.098 30.776 206.338 31.128 206.818 31.368C207.298 31.608 207.858 31.84 208.498 32.064C209.042 32.256 209.57 32.496 210.082 32.784C210.594 33.056 211.018 33.416 211.354 33.864C211.706 34.312 211.882 34.904 211.882 35.64C211.882 36.648 211.49 37.512 210.706 38.232C209.922 38.936 208.786 39.288 207.298 39.288ZM219.386 39.288C218.298 39.288 217.314 39.048 216.434 38.568C215.554 38.072 214.858 37.368 214.346 36.456C213.834 35.528 213.578 34.416 213.578 33.12C213.578 31.84 213.834 30.736 214.346 29.808C214.874 28.88 215.554 28.168 216.386 27.672C217.218 27.176 218.09 26.928 219.002 26.928C220.074 26.928 220.97 27.168 221.69 27.648C222.41 28.112 222.954 28.768 223.322 29.616C223.69 30.448 223.874 31.416 223.874 32.52C223.874 33.096 223.834 33.544 223.754 33.864H216.266C216.394 34.904 216.77 35.712 217.394 36.288C218.018 36.864 218.802 37.152 219.746 37.152C220.258 37.152 220.73 37.08 221.162 36.936C221.61 36.776 222.05 36.56 222.482 36.288L223.418 38.016C222.858 38.384 222.234 38.688 221.546 38.928C220.858 39.168 220.138 39.288 219.386 39.288ZM216.242 31.992H221.474C221.474 31.08 221.274 30.368 220.874 29.856C220.474 29.328 219.874 29.064 219.074 29.064C218.386 29.064 217.77 29.32 217.226 29.832C216.698 30.328 216.37 31.048 216.242 31.992ZM226.51 39V27.216H228.79L228.982 29.304H229.078C229.494 28.536 229.998 27.952 230.59 27.552C231.182 27.136 231.79 26.928 232.414 26.928C232.974 26.928 233.422 27.008 233.758 27.168L233.278 29.568C233.07 29.504 232.878 29.456 232.702 29.424C232.526 29.392 232.31 29.376 232.054 29.376C231.59 29.376 231.102 29.56 230.59 29.928C230.078 30.28 229.638 30.904 229.27 31.8V39H226.51ZM238.478 39L234.374 27.216H237.182L239.054 33.336C239.214 33.912 239.374 34.496 239.534 35.088C239.71 35.68 239.878 36.28 240.038 36.888H240.134C240.31 36.28 240.478 35.68 240.638 35.088C240.814 34.496 240.982 33.912 241.142 33.336L243.014 27.216H245.678L241.67 39H238.478ZM247.721 39V27.216H250.481V39H247.721ZM249.113 25.152C248.617 25.152 248.217 25.008 247.913 24.72C247.609 24.432 247.457 24.048 247.457 23.568C247.457 23.104 247.609 22.728 247.913 22.44C248.217 22.152 248.617 22.008 249.113 22.008C249.609 22.008 250.009 22.152 250.313 22.44C250.617 22.728 250.769 23.104 250.769 23.568C250.769 24.048 250.617 24.432 250.313 24.72C250.009 25.008 249.609 25.152 249.113 25.152ZM258.922 39.288C257.85 39.288 256.882 39.048 256.018 38.568C255.17 38.072 254.49 37.368 253.978 36.456C253.482 35.528 253.234 34.416 253.234 33.12C253.234 31.808 253.506 30.696 254.05 29.784C254.594 28.856 255.314 28.152 256.21 27.672C257.122 27.176 258.098 26.928 259.138 26.928C259.89 26.928 260.546 27.056 261.106 27.312C261.666 27.568 262.162 27.88 262.594 28.248L261.25 30.048C260.946 29.776 260.634 29.568 260.314 29.424C259.994 29.264 259.65 29.184 259.282 29.184C258.338 29.184 257.562 29.544 256.954 30.264C256.362 30.984 256.066 31.936 256.066 33.12C256.066 34.288 256.354 35.232 256.93 35.952C257.522 36.672 258.282 37.032 259.21 37.032C259.674 37.032 260.106 36.936 260.506 36.744C260.922 36.536 261.298 36.296 261.634 36.024L262.762 37.848C262.218 38.328 261.61 38.688 260.938 38.928C260.266 39.168 259.594 39.288 258.922 39.288ZM269.542 39.288C268.454 39.288 267.47 39.048 266.59 38.568C265.71 38.072 265.014 37.368 264.502 36.456C263.99 35.528 263.734 34.416 263.734 33.12C263.734 31.84 263.99 30.736 264.502 29.808C265.03 28.88 265.71 28.168 266.542 27.672C267.374 27.176 268.246 26.928 269.158 26.928C270.23 26.928 271.126 27.168 271.846 27.648C272.566 28.112 273.11 28.768 273.478 29.616C273.846 30.448 274.03 31.416 274.03 32.52C274.03 33.096 273.99 33.544 273.91 33.864H266.422C266.55 34.904 266.926 35.712 267.55 36.288C268.174 36.864 268.958 37.152 269.902 37.152C270.414 37.152 270.886 37.08 271.318 36.936C271.766 36.776 272.206 36.56 272.638 36.288L273.574 38.016C273.014 38.384 272.39 38.688 271.702 38.928C271.014 39.168 270.294 39.288 269.542 39.288ZM266.398 31.992H271.63C271.63 31.08 271.43 30.368 271.03 29.856C270.63 29.328 270.03 29.064 269.23 29.064C268.542 29.064 267.926 29.32 267.382 29.832C266.854 30.328 266.526 31.048 266.398 31.992ZM279.954 39.288C279.154 39.288 278.354 39.136 277.554 38.832C276.754 38.512 276.066 38.12 275.49 37.656L276.786 35.88C277.314 36.28 277.842 36.6 278.37 36.84C278.898 37.08 279.458 37.2 280.05 37.2C280.69 37.2 281.162 37.064 281.466 36.792C281.77 36.52 281.922 36.184 281.922 35.784C281.922 35.448 281.794 35.176 281.538 34.968C281.298 34.744 280.986 34.552 280.602 34.392C280.218 34.216 279.818 34.048 279.402 33.888C278.89 33.696 278.378 33.464 277.866 33.192C277.37 32.904 276.962 32.544 276.642 32.112C276.322 31.664 276.162 31.112 276.162 30.456C276.162 29.416 276.546 28.568 277.314 27.912C278.082 27.256 279.122 26.928 280.434 26.928C281.266 26.928 282.01 27.072 282.666 27.36C283.322 27.648 283.89 27.976 284.37 28.344L283.098 30.024C282.682 29.72 282.258 29.48 281.826 29.304C281.41 29.112 280.97 29.016 280.506 29.016C279.914 29.016 279.474 29.144 279.186 29.4C278.898 29.64 278.754 29.944 278.754 30.312C278.754 30.776 278.994 31.128 279.474 31.368C279.954 31.608 280.514 31.84 281.154 32.064C281.698 32.256 282.226 32.496 282.738 32.784C283.25 33.056 283.674 33.416 284.01 33.864C284.362 34.312 284.538 34.904 284.538 35.64C284.538 36.648 284.146 37.512 283.362 38.232C282.578 38.936 281.442 39.288 279.954 39.288Z" fill="white"/>
<path d="M110.056 79.288C109.32 79.288 108.784 79.064 108.448 78.616C108.128 78.152 107.968 77.496 107.968 76.648V61.912H109.936V76.792C109.936 77.096 109.992 77.32 110.104 77.464C110.216 77.592 110.344 77.656 110.488 77.656C110.552 77.656 110.608 77.656 110.656 77.656C110.72 77.64 110.808 77.624 110.92 77.608L111.184 79.096C111.056 79.16 110.904 79.208 110.728 79.24C110.552 79.272 110.328 79.288 110.056 79.288ZM118.621 79.288C117.677 79.288 116.789 79.048 115.957 78.568C115.141 78.088 114.477 77.392 113.965 76.48C113.469 75.568 113.221 74.472 113.221 73.192C113.221 71.88 113.469 70.768 113.965 69.856C114.477 68.944 115.141 68.248 115.957 67.768C116.789 67.288 117.677 67.048 118.621 67.048C119.581 67.048 120.469 67.288 121.285 67.768C122.101 68.248 122.757 68.944 123.253 69.856C123.765 70.768 124.021 71.88 124.021 73.192C124.021 74.472 123.765 75.568 123.253 76.48C122.757 77.392 122.101 78.088 121.285 78.568C120.469 79.048 119.581 79.288 118.621 79.288ZM118.621 77.656C119.629 77.656 120.437 77.248 121.045 76.432C121.669 75.6 121.981 74.52 121.981 73.192C121.981 71.848 121.669 70.76 121.045 69.928C120.437 69.096 119.629 68.68 118.621 68.68C117.629 68.68 116.821 69.096 116.197 69.928C115.573 70.76 115.261 71.848 115.261 73.192C115.261 74.52 115.573 75.6 116.197 76.432C116.821 77.248 117.629 77.656 118.621 77.656ZM127.093 79V67.336H128.725L128.893 69.448H128.965C129.365 68.712 129.853 68.128 130.429 67.696C131.005 67.264 131.621 67.048 132.277 67.048C132.741 67.048 133.157 67.128 133.525 67.288L133.141 69.016C132.949 68.952 132.773 68.904 132.613 68.872C132.453 68.84 132.253 68.824 132.013 68.824C131.517 68.824 130.997 69.024 130.453 69.424C129.925 69.824 129.461 70.52 129.061 71.512V79H127.093ZM139.907 79.288C138.867 79.288 137.923 79.048 137.075 78.568C136.227 78.072 135.555 77.368 135.059 76.456C134.563 75.544 134.315 74.456 134.315 73.192C134.315 71.912 134.563 70.816 135.059 69.904C135.571 68.992 136.227 68.288 137.027 67.792C137.827 67.296 138.667 67.048 139.547 67.048C141.035 67.048 142.179 67.544 142.979 68.536C143.795 69.528 144.203 70.856 144.203 72.52C144.203 72.728 144.195 72.936 144.179 73.144C144.179 73.336 144.163 73.504 144.131 73.648H136.259C136.339 74.88 136.723 75.864 137.411 76.6C138.115 77.336 139.027 77.704 140.147 77.704C140.707 77.704 141.219 77.624 141.683 77.464C142.163 77.288 142.619 77.064 143.051 76.792L143.747 78.088C143.251 78.408 142.683 78.688 142.043 78.928C141.419 79.168 140.707 79.288 139.907 79.288ZM136.235 72.232H142.475C142.475 71.048 142.219 70.152 141.707 69.544C141.211 68.92 140.507 68.608 139.595 68.608C138.779 68.608 138.043 68.928 137.387 69.568C136.747 70.192 136.363 71.08 136.235 72.232ZM147.085 79V67.336H148.717L148.885 69.016H148.957C149.469 68.456 150.029 67.992 150.637 67.624C151.245 67.24 151.893 67.048 152.581 67.048C153.477 67.048 154.173 67.248 154.669 67.648C155.181 68.032 155.557 68.576 155.797 69.28C156.405 68.624 157.021 68.088 157.645 67.672C158.269 67.256 158.933 67.048 159.637 67.048C160.837 67.048 161.725 67.44 162.301 68.224C162.893 68.992 163.189 70.12 163.189 71.608V79H161.221V71.872C161.221 70.784 161.045 69.992 160.693 69.496C160.341 69 159.797 68.752 159.061 68.752C158.197 68.752 157.221 69.352 156.133 70.552V79H154.165V71.872C154.165 70.784 153.989 69.992 153.637 69.496C153.285 69 152.733 68.752 151.981 68.752C151.117 68.752 150.141 69.352 149.053 70.552V79H147.085ZM171.788 79V67.336H173.756V79H171.788ZM172.796 64.936C172.412 64.936 172.092 64.824 171.836 64.6C171.596 64.36 171.476 64.04 171.476 63.64C171.476 63.256 171.596 62.944 171.836 62.704C172.092 62.464 172.412 62.344 172.796 62.344C173.18 62.344 173.492 62.464 173.732 62.704C173.988 62.944 174.116 63.256 174.116 63.64C174.116 64.04 173.988 64.36 173.732 64.6C173.492 64.824 173.18 64.936 172.796 64.936ZM177.695 83.92V67.336H179.327L179.495 68.68H179.567C180.095 68.232 180.671 67.848 181.295 67.528C181.935 67.208 182.599 67.048 183.287 67.048C184.791 67.048 185.935 67.592 186.719 68.68C187.503 69.752 187.895 71.192 187.895 73C187.895 74.312 187.655 75.44 187.175 76.384C186.711 77.328 186.095 78.048 185.327 78.544C184.575 79.04 183.751 79.288 182.855 79.288C182.311 79.288 181.767 79.168 181.223 78.928C180.695 78.688 180.159 78.36 179.615 77.944L179.663 79.984V83.92H177.695ZM182.519 77.632C183.479 77.632 184.271 77.224 184.895 76.408C185.535 75.576 185.855 74.44 185.855 73C185.855 71.72 185.615 70.688 185.135 69.904C184.671 69.104 183.887 68.704 182.783 68.704C182.287 68.704 181.783 68.84 181.271 69.112C180.775 69.384 180.239 69.776 179.663 70.288V76.408C180.191 76.856 180.703 77.176 181.199 77.368C181.695 77.544 182.135 77.632 182.519 77.632ZM194.055 79.288C193.223 79.288 192.431 79.136 191.679 78.832C190.927 78.512 190.271 78.128 189.711 77.68L190.695 76.36C191.207 76.76 191.735 77.096 192.279 77.368C192.823 77.624 193.439 77.752 194.127 77.752C194.895 77.752 195.471 77.576 195.855 77.224C196.239 76.856 196.431 76.424 196.431 75.928C196.431 75.528 196.295 75.192 196.023 74.92C195.767 74.648 195.431 74.424 195.015 74.248C194.615 74.056 194.199 73.88 193.767 73.72C193.223 73.512 192.687 73.28 192.159 73.024C191.631 72.752 191.199 72.408 190.863 71.992C190.527 71.56 190.359 71.016 190.359 70.36C190.359 69.416 190.711 68.632 191.415 68.008C192.135 67.368 193.127 67.048 194.391 67.048C195.111 67.048 195.783 67.176 196.407 67.432C197.031 67.688 197.567 68 198.015 68.368L197.055 69.616C196.655 69.312 196.239 69.064 195.807 68.872C195.375 68.68 194.903 68.584 194.391 68.584C193.655 68.584 193.111 68.752 192.759 69.088C192.423 69.424 192.255 69.816 192.255 70.264C192.255 70.632 192.375 70.936 192.615 71.176C192.855 71.4 193.167 71.6 193.551 71.776C193.935 71.936 194.343 72.104 194.775 72.28C195.335 72.488 195.887 72.728 196.431 73C196.975 73.256 197.423 73.608 197.775 74.056C198.143 74.488 198.327 75.072 198.327 75.808C198.327 76.432 198.159 77.008 197.823 77.536C197.503 78.064 197.023 78.488 196.383 78.808C195.759 79.128 194.983 79.288 194.055 79.288ZM204.47 79.288C203.238 79.288 202.334 78.904 201.758 78.136C201.182 77.352 200.894 76.216 200.894 74.728V67.336H202.886V74.464C202.886 75.552 203.054 76.344 203.39 76.84C203.742 77.336 204.302 77.584 205.07 77.584C205.678 77.584 206.214 77.432 206.678 77.128C207.158 76.808 207.67 76.304 208.214 75.616V67.336H210.182V79H208.55L208.382 77.176H208.31C207.766 77.816 207.19 78.328 206.582 78.712C205.974 79.096 205.27 79.288 204.47 79.288ZM214.116 79V67.336H215.748L215.916 69.016H215.988C216.5 68.456 217.06 67.992 217.668 67.624C218.276 67.24 218.924 67.048 219.612 67.048C220.508 67.048 221.204 67.248 221.7 67.648C222.212 68.032 222.588 68.576 222.828 69.28C223.436 68.624 224.052 68.088 224.676 67.672C225.3 67.256 225.964 67.048 226.668 67.048C227.868 67.048 228.756 67.44 229.332 68.224C229.924 68.992 230.22 70.12 230.22 71.608V79H228.252V71.872C228.252 70.784 228.076 69.992 227.724 69.496C227.372 69 226.828 68.752 226.092 68.752C225.228 68.752 224.252 69.352 223.164 70.552V79H221.196V71.872C221.196 70.784 221.02 69.992 220.668 69.496C220.316 69 219.764 68.752 219.012 68.752C218.148 68.752 217.172 69.352 216.084 70.552V79H214.116ZM242.804 79.288C241.348 79.288 240.18 78.76 239.3 77.704C238.42 76.632 237.98 75.128 237.98 73.192C237.98 71.928 238.212 70.84 238.676 69.928C239.156 69 239.78 68.288 240.548 67.792C241.332 67.296 242.164 67.048 243.044 67.048C243.716 67.048 244.3 67.168 244.796 67.408C245.292 67.648 245.796 67.976 246.308 68.392L246.212 66.4V61.912H248.204V79H246.572L246.404 77.632H246.332C245.884 78.08 245.356 78.472 244.748 78.808C244.14 79.128 243.492 79.288 242.804 79.288ZM243.236 77.632C244.26 77.632 245.252 77.096 246.212 76.024V69.928C245.716 69.48 245.236 69.168 244.772 68.992C244.324 68.8 243.86 68.704 243.38 68.704C242.756 68.704 242.188 68.896 241.676 69.28C241.18 69.648 240.78 70.168 240.476 70.84C240.172 71.496 240.02 72.272 240.02 73.168C240.02 74.56 240.3 75.656 240.86 76.456C241.42 77.24 242.212 77.632 243.236 77.632ZM256.668 79.288C255.724 79.288 254.836 79.048 254.004 78.568C253.188 78.088 252.524 77.392 252.012 76.48C251.516 75.568 251.268 74.472 251.268 73.192C251.268 71.88 251.516 70.768 252.012 69.856C252.524 68.944 253.188 68.248 254.004 67.768C254.836 67.288 255.724 67.048 256.668 67.048C257.628 67.048 258.516 67.288 259.332 67.768C260.148 68.248 260.804 68.944 261.3 69.856C261.812 70.768 262.068 71.88 262.068 73.192C262.068 74.472 261.812 75.568 261.3 76.48C260.804 77.392 260.148 78.088 259.332 78.568C258.516 79.048 257.628 79.288 256.668 79.288ZM256.668 77.656C257.676 77.656 258.484 77.248 259.092 76.432C259.716 75.6 260.028 74.52 260.028 73.192C260.028 71.848 259.716 70.76 259.092 69.928C258.484 69.096 257.676 68.68 256.668 68.68C255.676 68.68 254.868 69.096 254.244 69.928C253.62 70.76 253.308 71.848 253.308 73.192C253.308 74.52 253.62 75.6 254.244 76.432C254.868 77.248 255.676 77.656 256.668 77.656ZM267.228 79.288C266.492 79.288 265.956 79.064 265.62 78.616C265.3 78.152 265.14 77.496 265.14 76.648V61.912H267.108V76.792C267.108 77.096 267.164 77.32 267.276 77.464C267.388 77.592 267.516 77.656 267.66 77.656C267.724 77.656 267.78 77.656 267.828 77.656C267.892 77.64 267.98 77.624 268.092 77.608L268.356 79.096C268.228 79.16 268.076 79.208 267.9 79.24C267.724 79.272 267.5 79.288 267.228 79.288ZM275.793 79.288C274.849 79.288 273.961 79.048 273.129 78.568C272.313 78.088 271.649 77.392 271.137 76.48C270.641 75.568 270.393 74.472 270.393 73.192C270.393 71.88 270.641 70.768 271.137 69.856C271.649 68.944 272.313 68.248 273.129 67.768C273.961 67.288 274.849 67.048 275.793 67.048C276.753 67.048 277.641 67.288 278.457 67.768C279.273 68.248 279.929 68.944 280.425 69.856C280.937 70.768 281.193 71.88 281.193 73.192C281.193 74.472 280.937 75.568 280.425 76.48C279.929 77.392 279.273 78.088 278.457 78.568C277.641 79.048 276.753 79.288 275.793 79.288ZM275.793 77.656C276.801 77.656 277.609 77.248 278.217 76.432C278.841 75.6 279.153 74.52 279.153 73.192C279.153 71.848 278.841 70.76 278.217 69.928C277.609 69.096 276.801 68.68 275.793 68.68C274.801 68.68 273.993 69.096 273.369 69.928C272.745 70.76 272.433 71.848 272.433 73.192C272.433 74.52 272.745 75.6 273.369 76.432C273.993 77.248 274.801 77.656 275.793 77.656ZM284.265 79V67.336H285.897L286.065 69.448H286.137C286.537 68.712 287.025 68.128 287.601 67.696C288.177 67.264 288.793 67.048 289.449 67.048C289.913 67.048 290.329 67.128 290.697 67.288L290.313 69.016C290.121 68.952 289.945 68.904 289.785 68.872C289.625 68.84 289.425 68.824 289.185 68.824C288.689 68.824 288.169 69.024 287.625 69.424C287.097 69.824 286.633 70.52 286.233 71.512V79H284.265ZM300.438 79.288C299.606 79.288 298.814 79.136 298.062 78.832C297.31 78.512 296.654 78.128 296.094 77.68L297.078 76.36C297.59 76.76 298.118 77.096 298.662 77.368C299.206 77.624 299.822 77.752 300.51 77.752C301.278 77.752 301.854 77.576 302.238 77.224C302.622 76.856 302.814 76.424 302.814 75.928C302.814 75.528 302.678 75.192 302.406 74.92C302.15 74.648 301.814 74.424 301.398 74.248C300.998 74.056 300.582 73.88 300.15 73.72C299.606 73.512 299.07 73.28 298.542 73.024C298.014 72.752 297.582 72.408 297.246 71.992C296.91 71.56 296.742 71.016 296.742 70.36C296.742 69.416 297.094 68.632 297.798 68.008C298.518 67.368 299.51 67.048 300.774 67.048C301.494 67.048 302.166 67.176 302.79 67.432C303.414 67.688 303.95 68 304.398 68.368L303.438 69.616C303.038 69.312 302.622 69.064 302.19 68.872C301.758 68.68 301.286 68.584 300.774 68.584C300.038 68.584 299.494 68.752 299.142 69.088C298.806 69.424 298.638 69.816 298.638 70.264C298.638 70.632 298.758 70.936 298.998 71.176C299.238 71.4 299.55 71.6 299.934 71.776C300.318 71.936 300.726 72.104 301.158 72.28C301.718 72.488 302.27 72.728 302.814 73C303.358 73.256 303.806 73.608 304.158 74.056C304.526 74.488 304.71 75.072 304.71 75.808C304.71 76.432 304.542 77.008 304.206 77.536C303.886 78.064 303.406 78.488 302.766 78.808C302.142 79.128 301.366 79.288 300.438 79.288ZM307.445 79V67.336H309.413V79H307.445ZM308.453 64.936C308.069 64.936 307.749 64.824 307.493 64.6C307.253 64.36 307.133 64.04 307.133 63.64C307.133 63.256 307.253 62.944 307.493 62.704C307.749 62.464 308.069 62.344 308.453 62.344C308.837 62.344 309.149 62.464 309.389 62.704C309.645 62.944 309.773 63.256 309.773 63.64C309.773 64.04 309.645 64.36 309.389 64.6C309.149 64.824 308.837 64.936 308.453 64.936ZM317.023 79.288C315.775 79.288 314.903 78.928 314.407 78.208C313.927 77.488 313.687 76.552 313.687 75.4V68.944H311.959V67.456L313.783 67.336L314.023 64.072H315.679V67.336H318.823V68.944H315.679V75.424C315.679 76.144 315.807 76.704 316.063 77.104C316.335 77.488 316.807 77.68 317.479 77.68C317.687 77.68 317.911 77.648 318.151 77.584C318.391 77.504 318.607 77.432 318.799 77.368L319.183 78.856C318.863 78.968 318.511 79.064 318.127 79.144C317.759 79.24 317.391 79.288 317.023 79.288ZM110.656 109.288C109.68 109.288 108.864 109 108.208 108.424C107.568 107.832 107.248 107.016 107.248 105.976C107.248 104.696 107.816 103.72 108.952 103.048C110.104 102.36 111.92 101.88 114.4 101.608C114.4 101.112 114.328 100.64 114.184 100.192C114.056 99.744 113.816 99.384 113.464 99.112C113.128 98.824 112.64 98.68 112 98.68C111.328 98.68 110.696 98.808 110.104 99.064C109.512 99.32 108.984 99.608 108.52 99.928L107.752 98.56C108.296 98.208 108.96 97.872 109.744 97.552C110.544 97.216 111.408 97.048 112.336 97.048C113.76 97.048 114.792 97.488 115.432 98.368C116.072 99.232 116.392 100.392 116.392 101.848V109H114.76L114.592 107.608H114.52C113.976 108.056 113.376 108.448 112.72 108.784C112.08 109.12 111.392 109.288 110.656 109.288ZM111.232 107.704C111.792 107.704 112.32 107.568 112.816 107.296C113.312 107.024 113.84 106.64 114.4 106.144V102.904C112.464 103.144 111.104 103.504 110.32 103.984C109.552 104.464 109.168 105.08 109.168 105.832C109.168 106.488 109.368 106.968 109.768 107.272C110.168 107.56 110.656 107.704 111.232 107.704ZM120.062 109V97.336H121.694L121.862 99.016H121.934C122.446 98.456 123.006 97.992 123.614 97.624C124.222 97.24 124.87 97.048 125.558 97.048C126.454 97.048 127.15 97.248 127.646 97.648C128.158 98.032 128.534 98.576 128.774 99.28C129.382 98.624 129.998 98.088 130.622 97.672C131.246 97.256 131.91 97.048 132.614 97.048C133.814 97.048 134.702 97.44 135.278 98.224C135.87 98.992 136.166 100.12 136.166 101.608V109H134.198V101.872C134.198 100.784 134.022 99.992 133.67 99.496C133.318 99 132.774 98.752 132.038 98.752C131.174 98.752 130.198 99.352 129.11 100.552V109H127.142V101.872C127.142 100.784 126.966 99.992 126.614 99.496C126.262 99 125.71 98.752 124.958 98.752C124.094 98.752 123.118 99.352 122.03 100.552V109H120.062ZM144.688 109.288C143.648 109.288 142.704 109.048 141.856 108.568C141.008 108.072 140.336 107.368 139.84 106.456C139.344 105.544 139.096 104.456 139.096 103.192C139.096 101.912 139.344 100.816 139.84 99.904C140.352 98.992 141.008 98.288 141.808 97.792C142.608 97.296 143.448 97.048 144.328 97.048C145.816 97.048 146.96 97.544 147.76 98.536C148.576 99.528 148.984 100.856 148.984 102.52C148.984 102.728 148.976 102.936 148.96 103.144C148.96 103.336 148.944 103.504 148.912 103.648H141.04C141.12 104.88 141.504 105.864 142.192 106.6C142.896 107.336 143.808 107.704 144.928 107.704C145.488 107.704 146 107.624 146.464 107.464C146.944 107.288 147.4 107.064 147.832 106.792L148.528 108.088C148.032 108.408 147.464 108.688 146.824 108.928C146.2 109.168 145.488 109.288 144.688 109.288ZM141.016 102.232H147.256C147.256 101.048 147 100.152 146.488 99.544C145.992 98.92 145.288 98.608 144.376 98.608C143.56 98.608 142.824 98.928 142.168 99.568C141.528 100.192 141.144 101.08 141.016 102.232ZM155.304 109.288C154.056 109.288 153.184 108.928 152.688 108.208C152.208 107.488 151.968 106.552 151.968 105.4V98.944H150.24V97.456L152.064 97.336L152.304 94.072H153.96V97.336H157.104V98.944H153.96V105.424C153.96 106.144 154.088 106.704 154.344 107.104C154.616 107.488 155.088 107.68 155.76 107.68C155.968 107.68 156.192 107.648 156.432 107.584C156.672 107.504 156.888 107.432 157.08 107.368L157.464 108.856C157.144 108.968 156.792 109.064 156.408 109.144C156.04 109.24 155.672 109.288 155.304 109.288ZM159.546 113.08L159.066 111.928C159.754 111.624 160.29 111.216 160.674 110.704C161.058 110.208 161.242 109.64 161.226 109C161.194 109.016 161.154 109.024 161.105 109.024C161.058 109.024 161.018 109.024 160.986 109.024C160.602 109.024 160.266 108.912 159.978 108.688C159.706 108.448 159.57 108.104 159.57 107.656C159.57 107.224 159.714 106.888 160.002 106.648C160.29 106.392 160.634 106.264 161.034 106.264C161.546 106.264 161.946 106.472 162.234 106.888C162.538 107.304 162.69 107.872 162.69 108.592C162.69 109.616 162.41 110.512 161.85 111.28C161.29 112.064 160.522 112.664 159.546 113.08ZM170.232 109.288C169.208 109.288 168.28 109.048 167.448 108.568C166.616 108.088 165.96 107.392 165.48 106.48C165 105.568 164.76 104.472 164.76 103.192C164.76 101.88 165.016 100.768 165.528 99.856C166.056 98.944 166.744 98.248 167.592 97.768C168.456 97.288 169.384 97.048 170.376 97.048C171.144 97.048 171.8 97.184 172.344 97.456C172.904 97.728 173.384 98.048 173.784 98.416L172.776 99.712C172.44 99.408 172.08 99.16 171.696 98.968C171.328 98.776 170.912 98.68 170.448 98.68C169.744 98.68 169.112 98.872 168.552 99.256C168.008 99.624 167.576 100.152 167.256 100.84C166.952 101.512 166.8 102.296 166.8 103.192C166.8 104.52 167.128 105.6 167.784 106.432C168.456 107.248 169.328 107.656 170.4 107.656C170.944 107.656 171.448 107.544 171.912 107.32C172.376 107.08 172.784 106.8 173.136 106.48L174 107.8C173.472 108.264 172.888 108.632 172.248 108.904C171.608 109.16 170.936 109.288 170.232 109.288ZM180.59 109.288C179.646 109.288 178.758 109.048 177.926 108.568C177.11 108.088 176.446 107.392 175.934 106.48C175.438 105.568 175.19 104.472 175.19 103.192C175.19 101.88 175.438 100.768 175.934 99.856C176.446 98.944 177.11 98.248 177.926 97.768C178.758 97.288 179.646 97.048 180.59 97.048C181.55 97.048 182.438 97.288 183.254 97.768C184.07 98.248 184.726 98.944 185.222 99.856C185.734 100.768 185.99 101.88 185.99 103.192C185.99 104.472 185.734 105.568 185.222 106.48C184.726 107.392 184.07 108.088 183.254 108.568C182.438 109.048 181.55 109.288 180.59 109.288ZM180.59 107.656C181.598 107.656 182.406 107.248 183.014 106.432C183.638 105.6 183.95 104.52 183.95 103.192C183.95 101.848 183.638 100.76 183.014 99.928C182.406 99.096 181.598 98.68 180.59 98.68C179.598 98.68 178.79 99.096 178.166 99.928C177.542 100.76 177.23 101.848 177.23 103.192C177.23 104.52 177.542 105.6 178.166 106.432C178.79 107.248 179.598 107.656 180.59 107.656ZM189.062 109V97.336H190.694L190.862 99.016H190.934C191.494 98.456 192.086 97.992 192.71 97.624C193.334 97.24 194.046 97.048 194.846 97.048C196.078 97.048 196.974 97.44 197.534 98.224C198.11 98.992 198.398 100.12 198.398 101.608V109H196.43V101.872C196.43 100.784 196.254 99.992 195.902 99.496C195.55 99 194.99 98.752 194.222 98.752C193.63 98.752 193.094 98.904 192.614 99.208C192.15 99.512 191.622 99.96 191.03 100.552V109H189.062ZM202.187 109V97.336H203.819L203.987 99.016H204.059C204.619 98.456 205.211 97.992 205.835 97.624C206.459 97.24 207.171 97.048 207.971 97.048C209.203 97.048 210.099 97.44 210.659 98.224C211.235 98.992 211.523 100.12 211.523 101.608V109H209.555V101.872C209.555 100.784 209.379 99.992 209.027 99.496C208.675 99 208.115 98.752 207.347 98.752C206.755 98.752 206.219 98.904 205.739 99.208C205.275 99.512 204.747 99.96 204.155 100.552V109H202.187ZM220.04 109.288C219 109.288 218.056 109.048 217.208 108.568C216.36 108.072 215.688 107.368 215.192 106.456C214.696 105.544 214.448 104.456 214.448 103.192C214.448 101.912 214.696 100.816 215.192 99.904C215.704 98.992 216.36 98.288 217.16 97.792C217.96 97.296 218.8 97.048 219.68 97.048C221.168 97.048 222.312 97.544 223.112 98.536C223.928 99.528 224.336 100.856 224.336 102.52C224.336 102.728 224.328 102.936 224.312 103.144C224.312 103.336 224.296 103.504 224.264 103.648H216.392C216.472 104.88 216.856 105.864 217.544 106.6C218.248 107.336 219.16 107.704 220.28 107.704C220.84 107.704 221.352 107.624 221.816 107.464C222.296 107.288 222.752 107.064 223.184 106.792L223.88 108.088C223.384 108.408 222.816 108.688 222.176 108.928C221.552 109.168 220.84 109.288 220.04 109.288ZM216.368 102.232H222.608C222.608 101.048 222.352 100.152 221.84 99.544C221.344 98.92 220.64 98.608 219.728 98.608C218.912 98.608 218.176 98.928 217.52 99.568C216.88 100.192 216.496 101.08 216.368 102.232ZM231.826 109.288C230.802 109.288 229.874 109.048 229.042 108.568C228.21 108.088 227.554 107.392 227.074 106.48C226.594 105.568 226.354 104.472 226.354 103.192C226.354 101.88 226.61 100.768 227.122 99.856C227.65 98.944 228.338 98.248 229.186 97.768C230.05 97.288 230.978 97.048 231.97 97.048C232.738 97.048 233.394 97.184 233.938 97.456C234.498 97.728 234.978 98.048 235.378 98.416L234.37 99.712C234.034 99.408 233.674 99.16 233.29 98.968C232.922 98.776 232.506 98.68 232.042 98.68C231.338 98.68 230.706 98.872 230.146 99.256C229.602 99.624 229.17 100.152 228.85 100.84C228.546 101.512 228.394 102.296 228.394 103.192C228.394 104.52 228.722 105.6 229.378 106.432C230.05 107.248 230.922 107.656 231.994 107.656C232.538 107.656 233.042 107.544 233.506 107.32C233.97 107.08 234.378 106.8 234.73 106.48L235.594 107.8C235.066 108.264 234.482 108.632 233.842 108.904C233.202 109.16 232.53 109.288 231.826 109.288ZM241.601 109.288C240.353 109.288 239.481 108.928 238.985 108.208C238.505 107.488 238.265 106.552 238.265 105.4V98.944H236.537V97.456L238.361 97.336L238.601 94.072H240.257V97.336H243.401V98.944H240.257V105.424C240.257 106.144 240.385 106.704 240.641 107.104C240.913 107.488 241.385 107.68 242.057 107.68C242.265 107.68 242.489 107.648 242.729 107.584C242.969 107.504 243.185 107.432 243.377 107.368L243.761 108.856C243.441 108.968 243.089 109.064 242.705 109.144C242.337 109.24 241.969 109.288 241.601 109.288ZM250.246 109.288C249.302 109.288 248.414 109.048 247.582 108.568C246.766 108.088 246.102 107.392 245.59 106.48C245.094 105.568 244.846 104.472 244.846 103.192C244.846 101.88 245.094 100.768 245.59 99.856C246.102 98.944 246.766 98.248 247.582 97.768C248.414 97.288 249.302 97.048 250.246 97.048C251.206 97.048 252.094 97.288 252.91 97.768C253.726 98.248 254.382 98.944 254.878 99.856C255.39 100.768 255.646 101.88 255.646 103.192C255.646 104.472 255.39 105.568 254.878 106.48C254.382 107.392 253.726 108.088 252.91 108.568C252.094 109.048 251.206 109.288 250.246 109.288ZM250.246 107.656C251.254 107.656 252.062 107.248 252.67 106.432C253.294 105.6 253.606 104.52 253.606 103.192C253.606 101.848 253.294 100.76 252.67 99.928C252.062 99.096 251.254 98.68 250.246 98.68C249.254 98.68 248.446 99.096 247.822 99.928C247.198 100.76 246.886 101.848 246.886 103.192C246.886 104.52 247.198 105.6 247.822 106.432C248.446 107.248 249.254 107.656 250.246 107.656ZM258.718 109V97.336H260.35L260.518 99.448H260.59C260.99 98.712 261.478 98.128 262.054 97.696C262.63 97.264 263.246 97.048 263.902 97.048C264.366 97.048 264.782 97.128 265.15 97.288L264.766 99.016C264.574 98.952 264.398 98.904 264.238 98.872C264.078 98.84 263.878 98.824 263.638 98.824C263.142 98.824 262.622 99.024 262.078 99.424C261.55 99.824 261.086 100.52 260.686 101.512V109H258.718ZM274.531 109.288C273.555 109.288 272.739 109 272.083 108.424C271.443 107.832 271.123 107.016 271.123 105.976C271.123 104.696 271.691 103.72 272.827 103.048C273.979 102.36 275.795 101.88 278.275 101.608C278.275 101.112 278.203 100.64 278.059 100.192C277.931 99.744 277.691 99.384 277.339 99.112C277.003 98.824 276.515 98.68 275.875 98.68C275.203 98.68 274.571 98.808 273.979 99.064C273.387 99.32 272.859 99.608 272.395 99.928L271.627 98.56C272.171 98.208 272.835 97.872 273.619 97.552C274.419 97.216 275.283 97.048 276.211 97.048C277.635 97.048 278.667 97.488 279.307 98.368C279.947 99.232 280.267 100.392 280.267 101.848V109H278.635L278.467 107.608H278.395C277.851 108.056 277.251 108.448 276.595 108.784C275.955 109.12 275.267 109.288 274.531 109.288ZM275.107 107.704C275.667 107.704 276.195 107.568 276.691 107.296C277.187 107.024 277.715 106.64 278.275 106.144V102.904C276.339 103.144 274.979 103.504 274.195 103.984C273.427 104.464 273.043 105.08 273.043 105.832C273.043 106.488 273.243 106.968 273.643 107.272C274.043 107.56 274.531 107.704 275.107 107.704ZM287.921 109.288C286.465 109.288 285.297 108.76 284.417 107.704C283.537 106.632 283.097 105.128 283.097 103.192C283.097 101.928 283.329 100.84 283.793 99.928C284.273 99 284.897 98.288 285.665 97.792C286.449 97.296 287.281 97.048 288.161 97.048C288.833 97.048 289.417 97.168 289.913 97.408C290.409 97.648 290.913 97.976 291.425 98.392L291.329 96.4V91.912H293.321V109H291.689L291.521 107.632H291.449C291.001 108.08 290.473 108.472 289.865 108.808C289.257 109.128 288.609 109.288 287.921 109.288ZM288.353 107.632C289.377 107.632 290.369 107.096 291.329 106.024V99.928C290.833 99.48 290.353 99.168 289.889 98.992C289.441 98.8 288.977 98.704 288.497 98.704C287.873 98.704 287.305 98.896 286.793 99.28C286.297 99.648 285.897 100.168 285.593 100.84C285.289 101.496 285.137 102.272 285.137 103.168C285.137 104.56 285.417 105.656 285.977 106.456C286.537 107.24 287.329 107.632 288.353 107.632ZM297.249 109V97.336H299.217V109H297.249ZM298.257 94.936C297.873 94.936 297.553 94.824 297.297 94.6C297.057 94.36 296.937 94.04 296.937 93.64C296.937 93.256 297.057 92.944 297.297 92.704C297.553 92.464 297.873 92.344 298.257 92.344C298.641 92.344 298.953 92.464 299.193 92.704C299.449 92.944 299.577 93.256 299.577 93.64C299.577 94.04 299.449 94.36 299.193 94.6C298.953 94.824 298.641 94.936 298.257 94.936ZM307.764 109.288C306.74 109.288 305.812 109.048 304.98 108.568C304.148 108.088 303.492 107.392 303.012 106.48C302.532 105.568 302.292 104.472 302.292 103.192C302.292 101.88 302.548 100.768 303.06 99.856C303.588 98.944 304.276 98.248 305.124 97.768C305.988 97.288 306.916 97.048 307.908 97.048C308.676 97.048 309.332 97.184 309.876 97.456C310.436 97.728 310.916 98.048 311.316 98.416L310.308 99.712C309.972 99.408 309.612 99.16 309.228 98.968C308.86 98.776 308.444 98.68 307.98 98.68C307.276 98.68 306.644 98.872 306.084 99.256C305.54 99.624 305.108 100.152 304.788 100.84C304.484 101.512 304.332 102.296 304.332 103.192C304.332 104.52 304.66 105.6 305.316 106.432C305.988 107.248 306.86 107.656 307.932 107.656C308.476 107.656 308.98 107.544 309.444 107.32C309.908 107.08 310.316 106.8 310.668 106.48L311.532 107.8C311.004 108.264 310.42 108.632 309.78 108.904C309.14 109.16 308.468 109.288 307.764 109.288ZM314.101 109V97.336H316.069V109H314.101ZM315.109 94.936C314.725 94.936 314.405 94.824 314.149 94.6C313.909 94.36 313.789 94.04 313.789 93.64C313.789 93.256 313.909 92.944 314.149 92.704C314.405 92.464 314.725 92.344 315.109 92.344C315.493 92.344 315.805 92.464 316.045 92.704C316.301 92.944 316.429 93.256 316.429 93.64C316.429 94.04 316.301 94.36 316.045 94.6C315.805 94.824 315.493 94.936 315.109 94.936ZM320.007 113.92V97.336H321.639L321.807 98.68H321.879C322.407 98.232 322.983 97.848 323.607 97.528C324.247 97.208 324.911 97.048 325.599 97.048C327.103 97.048 328.247 97.592 329.031 98.68C329.815 99.752 330.207 101.192 330.207 103C330.207 104.312 329.967 105.44 329.487 106.384C329.023 107.328 328.407 108.048 327.639 108.544C326.887 109.04 326.063 109.288 325.167 109.288C324.623 109.288 324.079 109.168 323.535 108.928C323.007 108.688 322.471 108.36 321.927 107.944L321.975 109.984V113.92H320.007ZM324.831 107.632C325.791 107.632 326.583 107.224 327.207 106.408C327.847 105.576 328.167 104.44 328.167 103C328.167 101.72 327.927 100.688 327.447 99.904C326.983 99.104 326.199 98.704 325.095 98.704C324.599 98.704 324.095 98.84 323.583 99.112C323.087 99.384 322.551 99.776 321.975 100.288V106.408C322.503 106.856 323.015 107.176 323.511 107.368C324.007 107.544 324.447 107.632 324.831 107.632ZM335.679 109.288C334.703 109.288 333.887 109 333.231 108.424C332.591 107.832 332.271 107.016 332.271 105.976C332.271 104.696 332.839 103.72 333.975 103.048C335.127 102.36 336.943 101.88 339.423 101.608C339.423 101.112 339.351 100.64 339.207 100.192C339.079 99.744 338.839 99.384 338.487 99.112C338.151 98.824 337.663 98.68 337.023 98.68C336.351 98.68 335.719 98.808 335.127 99.064C334.535 99.32 334.007 99.608 333.543 99.928L332.775 98.56C333.319 98.208 333.983 97.872 334.767 97.552C335.567 97.216 336.431 97.048 337.359 97.048C338.783 97.048 339.815 97.488 340.455 98.368C341.095 99.232 341.415 100.392 341.415 101.848V109H339.783L339.615 107.608H339.543C338.999 108.056 338.399 108.448 337.743 108.784C337.103 109.12 336.415 109.288 335.679 109.288ZM336.255 107.704C336.815 107.704 337.343 107.568 337.839 107.296C338.335 107.024 338.863 106.64 339.423 106.144V102.904C337.487 103.144 336.127 103.504 335.343 103.984C334.575 104.464 334.191 105.08 334.191 105.832C334.191 106.488 334.391 106.968 334.791 107.272C335.191 107.56 335.679 107.704 336.255 107.704ZM345.421 109V98.944H343.837V97.456L345.421 97.336V95.488C345.421 94.304 345.693 93.368 346.237 92.68C346.797 91.976 347.661 91.624 348.829 91.624C349.197 91.624 349.549 91.664 349.885 91.744C350.221 91.808 350.517 91.896 350.773 92.008L350.341 93.52C349.909 93.328 349.469 93.232 349.021 93.232C347.933 93.232 347.389 93.984 347.389 95.488V97.336H349.861V98.944H347.389V109H345.421ZM355.701 114.376C354.277 114.376 353.117 114.104 352.221 113.56C351.325 113.016 350.877 112.24 350.877 111.232C350.877 110.736 351.029 110.256 351.333 109.792C351.637 109.344 352.053 108.944 352.581 108.592V108.496C352.293 108.32 352.045 108.072 351.837 107.752C351.645 107.432 351.549 107.048 351.549 106.6C351.549 106.104 351.685 105.672 351.957 105.304C352.229 104.936 352.517 104.648 352.821 104.44V104.344C352.437 104.024 352.085 103.592 351.765 103.048C351.461 102.504 351.309 101.888 351.309 101.2C351.309 100.352 351.509 99.616 351.909 98.992C352.309 98.368 352.845 97.888 353.517 97.552C354.189 97.216 354.917 97.048 355.701 97.048C356.021 97.048 356.325 97.08 356.613 97.144C356.901 97.192 357.149 97.256 357.357 97.336H361.413V98.848H359.013C359.285 99.104 359.509 99.448 359.685 99.88C359.877 100.296 359.973 100.752 359.973 101.248C359.973 102.08 359.781 102.8 359.397 103.408C359.013 104.016 358.501 104.488 357.861 104.824C357.221 105.144 356.501 105.304 355.701 105.304C355.077 105.304 354.493 105.168 353.949 104.896C353.741 105.072 353.565 105.272 353.421 105.496C353.277 105.704 353.205 105.968 353.205 106.288C353.205 106.656 353.349 106.96 353.637 107.2C353.941 107.44 354.485 107.56 355.269 107.56H357.525C358.885 107.56 359.901 107.784 360.573 108.232C361.261 108.664 361.605 109.368 361.605 110.344C361.605 111.064 361.365 111.728 360.885 112.336C360.405 112.944 359.725 113.432 358.845 113.8C357.965 114.184 356.917 114.376 355.701 114.376ZM355.701 103.984C356.373 103.984 356.949 103.736 357.429 103.24C357.925 102.728 358.173 102.048 358.173 101.2C358.173 100.352 357.933 99.688 357.453 99.208C356.973 98.728 356.389 98.488 355.701 98.488C355.013 98.488 354.429 98.728 353.949 99.208C353.469 99.688 353.229 100.352 353.229 101.2C353.229 102.048 353.469 102.728 353.949 103.24C354.445 103.736 355.029 103.984 355.701 103.984ZM355.989 113.008C357.109 113.008 358.005 112.76 358.677 112.264C359.349 111.784 359.685 111.24 359.685 110.632C359.685 110.088 359.477 109.712 359.061 109.504C358.661 109.296 358.085 109.192 357.333 109.192H355.317C355.093 109.192 354.845 109.176 354.573 109.144C354.317 109.112 354.061 109.064 353.805 109C353.389 109.304 353.085 109.624 352.893 109.96C352.701 110.296 352.605 110.632 352.605 110.968C352.605 111.592 352.901 112.088 353.493 112.456C354.101 112.824 354.933 113.008 355.989 113.008Z" fill="#E9F7F8"/>
<path d="M37.0003 48.6666C29.6483 48.6666 23.667 54.648 23.667 62C23.667 69.352 29.6483 75.3333 37.0003 75.3333C44.3523 75.3333 50.3337 69.352 50.3337 62C50.3337 54.648 44.3523 48.6666 37.0003 48.6666ZM37.0003 72.6666C31.119 72.6666 26.3337 67.8813 26.3337 62C26.3337 56.1186 31.119 51.3333 37.0003 51.3333C42.8817 51.3333 47.667 56.1186 47.667 62C47.667 67.8813 42.8817 72.6666 37.0003 72.6666Z" fill="black"/>
<path d="M38.3337 55.3334H35.667V63.3334H43.667V60.6667H38.3337V55.3334Z" fill="black"/>
</svg>
