<svg width="354" height="120" viewBox="0 0 354 120" fill="none" xmlns="http://www.w3.org/2000/svg">
<rect width="75" height="120" rx="5" fill="#E9F7F8"/>
<path d="M98.776 39V36.744H102.184V26.712H99.376V24.984C100.128 24.84 100.784 24.672 101.344 24.48C101.904 24.272 102.424 24.024 102.904 23.736H104.968V36.744H107.968V39H98.776ZM115.449 39.288C113.865 39.288 112.601 38.6 111.657 37.224C110.729 35.848 110.265 33.872 110.265 31.296C110.265 28.72 110.729 26.768 111.657 25.44C112.601 24.112 113.865 23.448 115.449 23.448C117.033 23.448 118.289 24.112 119.217 25.44C120.161 26.768 120.633 28.72 120.633 31.296C120.633 33.872 120.161 35.848 119.217 37.224C118.289 38.6 117.033 39.288 115.449 39.288ZM115.449 37.128C115.945 37.128 116.385 36.944 116.769 36.576C117.153 36.192 117.449 35.576 117.657 34.728C117.881 33.88 117.993 32.736 117.993 31.296C117.993 29.856 117.881 28.72 117.657 27.888C117.449 27.056 117.153 26.472 116.769 26.136C116.385 25.784 115.945 25.608 115.449 25.608C114.969 25.608 114.537 25.784 114.153 26.136C113.769 26.472 113.465 27.056 113.241 27.888C113.017 28.72 112.905 29.856 112.905 31.296C112.905 32.736 113.017 33.88 113.241 34.728C113.465 35.576 113.769 36.192 114.153 36.576C114.537 36.944 114.969 37.128 115.449 37.128ZM128.958 43.848C128.638 43.848 128.358 43.824 128.118 43.776C127.878 43.728 127.646 43.672 127.422 43.608L127.926 41.448C128.038 41.48 128.166 41.512 128.31 41.544C128.47 41.592 128.622 41.616 128.766 41.616C129.39 41.616 129.886 41.424 130.254 41.04C130.638 40.672 130.926 40.192 131.118 39.6L131.334 38.856L126.702 27.216H129.51L131.55 33C131.726 33.512 131.894 34.056 132.054 34.632C132.23 35.192 132.406 35.752 132.582 36.312H132.678C132.822 35.768 132.966 35.216 133.11 34.656C133.27 34.08 133.422 33.528 133.566 33L135.342 27.216H138.006L133.734 39.528C133.238 40.856 132.638 41.904 131.934 42.672C131.23 43.456 130.238 43.848 128.958 43.848ZM144.948 39.288C143.86 39.288 142.876 39.048 141.996 38.568C141.116 38.072 140.42 37.368 139.908 36.456C139.396 35.528 139.14 34.416 139.14 33.12C139.14 31.84 139.396 30.736 139.908 29.808C140.436 28.88 141.116 28.168 141.948 27.672C142.78 27.176 143.652 26.928 144.564 26.928C145.636 26.928 146.532 27.168 147.252 27.648C147.972 28.112 148.516 28.768 148.884 29.616C149.252 30.448 149.436 31.416 149.436 32.52C149.436 33.096 149.396 33.544 149.316 33.864H141.828C141.956 34.904 142.332 35.712 142.956 36.288C143.58 36.864 144.364 37.152 145.308 37.152C145.82 37.152 146.292 37.08 146.724 36.936C147.172 36.776 147.612 36.56 148.044 36.288L148.98 38.016C148.42 38.384 147.796 38.688 147.108 38.928C146.42 39.168 145.7 39.288 144.948 39.288ZM141.804 31.992H147.036C147.036 31.08 146.836 30.368 146.436 29.856C146.036 29.328 145.436 29.064 144.636 29.064C143.948 29.064 143.332 29.32 142.788 29.832C142.26 30.328 141.932 31.048 141.804 31.992ZM154.647 39.288C153.623 39.288 152.783 38.968 152.127 38.328C151.487 37.688 151.167 36.856 151.167 35.832C151.167 34.568 151.719 33.592 152.823 32.904C153.927 32.2 155.687 31.72 158.103 31.464C158.087 30.84 157.919 30.304 157.599 29.856C157.295 29.392 156.743 29.16 155.943 29.16C155.367 29.16 154.799 29.272 154.239 29.496C153.695 29.72 153.159 29.992 152.631 30.312L151.623 28.464C152.279 28.048 153.015 27.688 153.831 27.384C154.663 27.08 155.543 26.928 156.471 26.928C157.943 26.928 159.039 27.368 159.759 28.248C160.495 29.112 160.863 30.368 160.863 32.016V39H158.583L158.391 37.704H158.295C157.767 38.152 157.199 38.528 156.591 38.832C155.999 39.136 155.351 39.288 154.647 39.288ZM155.535 37.128C156.015 37.128 156.447 37.016 156.831 36.792C157.231 36.552 157.655 36.232 158.103 35.832V33.192C156.503 33.4 155.391 33.712 154.767 34.128C154.143 34.528 153.831 35.024 153.831 35.616C153.831 36.144 153.991 36.528 154.311 36.768C154.631 37.008 155.039 37.128 155.535 37.128ZM164.166 39V27.216H166.446L166.638 29.304H166.734C167.15 28.536 167.654 27.952 168.246 27.552C168.838 27.136 169.446 26.928 170.07 26.928C170.63 26.928 171.078 27.008 171.414 27.168L170.934 29.568C170.726 29.504 170.534 29.456 170.358 29.424C170.182 29.392 169.966 29.376 169.71 29.376C169.246 29.376 168.758 29.56 168.246 29.928C167.734 30.28 167.294 30.904 166.926 31.8V39H164.166ZM176.267 39.288C175.467 39.288 174.667 39.136 173.867 38.832C173.067 38.512 172.379 38.12 171.803 37.656L173.099 35.88C173.627 36.28 174.155 36.6 174.683 36.84C175.211 37.08 175.771 37.2 176.363 37.2C177.003 37.2 177.475 37.064 177.779 36.792C178.083 36.52 178.235 36.184 178.235 35.784C178.235 35.448 178.107 35.176 177.851 34.968C177.611 34.744 177.299 34.552 176.915 34.392C176.531 34.216 176.131 34.048 175.715 33.888C175.203 33.696 174.691 33.464 174.179 33.192C173.683 32.904 173.275 32.544 172.955 32.112C172.635 31.664 172.475 31.112 172.475 30.456C172.475 29.416 172.859 28.568 173.627 27.912C174.395 27.256 175.435 26.928 176.747 26.928C177.579 26.928 178.323 27.072 178.979 27.36C179.635 27.648 180.203 27.976 180.683 28.344L179.411 30.024C178.995 29.72 178.571 29.48 178.139 29.304C177.723 29.112 177.283 29.016 176.819 29.016C176.227 29.016 175.787 29.144 175.499 29.4C175.211 29.64 175.067 29.944 175.067 30.312C175.067 30.776 175.307 31.128 175.787 31.368C176.267 31.608 176.827 31.84 177.467 32.064C178.011 32.256 178.539 32.496 179.051 32.784C179.563 33.056 179.987 33.416 180.323 33.864C180.675 34.312 180.851 34.904 180.851 35.64C180.851 36.648 180.459 37.512 179.675 38.232C178.891 38.936 177.755 39.288 176.267 39.288ZM192.943 39.288C191.967 39.288 191.055 39.048 190.207 38.568C189.359 38.072 188.671 37.368 188.143 36.456C187.615 35.528 187.351 34.416 187.351 33.12C187.351 31.808 187.615 30.696 188.143 29.784C188.671 28.856 189.359 28.152 190.207 27.672C191.055 27.176 191.967 26.928 192.943 26.928C193.935 26.928 194.855 27.176 195.703 27.672C196.551 28.152 197.239 28.856 197.767 29.784C198.295 30.696 198.559 31.808 198.559 33.12C198.559 34.416 198.295 35.528 197.767 36.456C197.239 37.368 196.551 38.072 195.703 38.568C194.855 39.048 193.935 39.288 192.943 39.288ZM192.943 37.032C193.807 37.032 194.487 36.672 194.983 35.952C195.479 35.232 195.727 34.288 195.727 33.12C195.727 31.936 195.479 30.984 194.983 30.264C194.487 29.544 193.807 29.184 192.943 29.184C192.079 29.184 191.399 29.544 190.903 30.264C190.423 30.984 190.183 31.936 190.183 33.12C190.183 34.288 190.423 35.232 190.903 35.952C191.399 36.672 192.079 37.032 192.943 37.032ZM201.677 39V29.4H200.093V27.336L201.677 27.216V25.992C201.677 24.76 201.981 23.752 202.589 22.968C203.197 22.168 204.197 21.768 205.589 21.768C206.005 21.768 206.405 21.808 206.789 21.888C207.173 21.968 207.493 22.064 207.749 22.176L207.221 24.24C206.789 24.048 206.357 23.952 205.925 23.952C204.933 23.952 204.437 24.616 204.437 25.944V27.216H206.741V29.4H204.437V39H201.677ZM218.659 39.288C217.571 39.288 216.587 39.048 215.707 38.568C214.827 38.072 214.131 37.368 213.619 36.456C213.107 35.528 212.851 34.416 212.851 33.12C212.851 31.84 213.107 30.736 213.619 29.808C214.147 28.88 214.827 28.168 215.659 27.672C216.491 27.176 217.363 26.928 218.275 26.928C219.347 26.928 220.243 27.168 220.963 27.648C221.683 28.112 222.227 28.768 222.595 29.616C222.963 30.448 223.147 31.416 223.147 32.52C223.147 33.096 223.107 33.544 223.027 33.864H215.539C215.667 34.904 216.043 35.712 216.667 36.288C217.291 36.864 218.075 37.152 219.019 37.152C219.531 37.152 220.003 37.08 220.435 36.936C220.883 36.776 221.323 36.56 221.755 36.288L222.691 38.016C222.131 38.384 221.507 38.688 220.819 38.928C220.131 39.168 219.411 39.288 218.659 39.288ZM215.515 31.992H220.747C220.747 31.08 220.547 30.368 220.147 29.856C219.747 29.328 219.147 29.064 218.347 29.064C217.659 29.064 217.043 29.32 216.499 29.832C215.971 30.328 215.643 31.048 215.515 31.992ZM224.086 39L227.83 32.856L224.326 27.216H227.302L228.622 29.448C228.798 29.768 228.974 30.104 229.15 30.456C229.342 30.792 229.526 31.12 229.702 31.44H229.798C229.942 31.12 230.094 30.792 230.254 30.456C230.414 30.104 230.566 29.768 230.71 29.448L231.838 27.216H234.694L231.214 33.168L234.958 39H231.982L230.542 36.672C230.35 36.32 230.15 35.968 229.942 35.616C229.75 35.264 229.55 34.92 229.342 34.584H229.246C229.086 34.92 228.918 35.264 228.742 35.616C228.566 35.952 228.39 36.304 228.214 36.672L226.966 39H224.086ZM237.057 43.656V27.216H239.337L239.529 28.464H239.625C240.121 28.048 240.673 27.688 241.281 27.384C241.905 27.08 242.537 26.928 243.177 26.928C244.649 26.928 245.785 27.472 246.585 28.56C247.401 29.648 247.809 31.104 247.809 32.928C247.809 34.272 247.569 35.424 247.089 36.384C246.609 37.328 245.985 38.048 245.217 38.544C244.465 39.04 243.649 39.288 242.769 39.288C242.257 39.288 241.745 39.176 241.233 38.952C240.721 38.712 240.225 38.392 239.745 37.992L239.817 39.96V43.656H237.057ZM242.193 37.008C242.977 37.008 243.633 36.664 244.161 35.976C244.689 35.288 244.953 34.28 244.953 32.952C244.953 31.768 244.753 30.848 244.353 30.192C243.953 29.536 243.305 29.208 242.409 29.208C241.577 29.208 240.713 29.648 239.817 30.528V36.024C240.249 36.376 240.665 36.632 241.065 36.792C241.465 36.936 241.841 37.008 242.193 37.008ZM255.644 39.288C254.556 39.288 253.572 39.048 252.692 38.568C251.812 38.072 251.116 37.368 250.604 36.456C250.092 35.528 249.836 34.416 249.836 33.12C249.836 31.84 250.092 30.736 250.604 29.808C251.132 28.88 251.812 28.168 252.644 27.672C253.476 27.176 254.348 26.928 255.26 26.928C256.332 26.928 257.228 27.168 257.948 27.648C258.668 28.112 259.212 28.768 259.58 29.616C259.948 30.448 260.132 31.416 260.132 32.52C260.132 33.096 260.092 33.544 260.012 33.864H252.524C252.652 34.904 253.028 35.712 253.652 36.288C254.276 36.864 255.06 37.152 256.004 37.152C256.516 37.152 256.988 37.08 257.42 36.936C257.868 36.776 258.308 36.56 258.74 36.288L259.676 38.016C259.116 38.384 258.492 38.688 257.804 38.928C257.116 39.168 256.396 39.288 255.644 39.288ZM252.5 31.992H257.732C257.732 31.08 257.532 30.368 257.132 29.856C256.732 29.328 256.132 29.064 255.332 29.064C254.644 29.064 254.028 29.32 253.484 29.832C252.956 30.328 252.628 31.048 252.5 31.992ZM262.768 39V27.216H265.048L265.24 29.304H265.336C265.752 28.536 266.256 27.952 266.848 27.552C267.44 27.136 268.048 26.928 268.672 26.928C269.232 26.928 269.68 27.008 270.016 27.168L269.536 29.568C269.328 29.504 269.136 29.456 268.96 29.424C268.784 29.392 268.568 29.376 268.312 29.376C267.848 29.376 267.36 29.56 266.848 29.928C266.336 30.28 265.896 30.904 265.528 31.8V39H262.768ZM271.721 39V27.216H274.481V39H271.721ZM273.113 25.152C272.617 25.152 272.217 25.008 271.913 24.72C271.609 24.432 271.457 24.048 271.457 23.568C271.457 23.104 271.609 22.728 271.913 22.44C272.217 22.152 272.617 22.008 273.113 22.008C273.609 22.008 274.009 22.152 274.313 22.44C274.617 22.728 274.769 23.104 274.769 23.568C274.769 24.048 274.617 24.432 274.313 24.72C274.009 25.008 273.609 25.152 273.113 25.152ZM283.042 39.288C281.954 39.288 280.97 39.048 280.09 38.568C279.21 38.072 278.514 37.368 278.002 36.456C277.49 35.528 277.234 34.416 277.234 33.12C277.234 31.84 277.49 30.736 278.002 29.808C278.53 28.88 279.21 28.168 280.042 27.672C280.874 27.176 281.746 26.928 282.658 26.928C283.73 26.928 284.626 27.168 285.346 27.648C286.066 28.112 286.61 28.768 286.978 29.616C287.346 30.448 287.53 31.416 287.53 32.52C287.53 33.096 287.49 33.544 287.41 33.864H279.922C280.05 34.904 280.426 35.712 281.05 36.288C281.674 36.864 282.458 37.152 283.402 37.152C283.914 37.152 284.386 37.08 284.818 36.936C285.266 36.776 285.706 36.56 286.138 36.288L287.074 38.016C286.514 38.384 285.89 38.688 285.202 38.928C284.514 39.168 283.794 39.288 283.042 39.288ZM279.898 31.992H285.13C285.13 31.08 284.93 30.368 284.53 29.856C284.13 29.328 283.53 29.064 282.73 29.064C282.042 29.064 281.426 29.32 280.882 29.832C280.354 30.328 280.026 31.048 279.898 31.992ZM290.166 39V27.216H292.446L292.638 28.8H292.734C293.262 28.288 293.838 27.848 294.462 27.48C295.086 27.112 295.798 26.928 296.598 26.928C297.862 26.928 298.782 27.336 299.358 28.152C299.934 28.968 300.222 30.12 300.222 31.608V39H297.462V31.968C297.462 30.992 297.318 30.304 297.03 29.904C296.742 29.504 296.27 29.304 295.614 29.304C295.102 29.304 294.646 29.432 294.246 29.688C293.862 29.928 293.422 30.288 292.926 30.768V39H290.166ZM308.516 39.288C307.444 39.288 306.476 39.048 305.612 38.568C304.764 38.072 304.084 37.368 303.572 36.456C303.076 35.528 302.828 34.416 302.828 33.12C302.828 31.808 303.1 30.696 303.644 29.784C304.188 28.856 304.908 28.152 305.804 27.672C306.716 27.176 307.692 26.928 308.732 26.928C309.484 26.928 310.14 27.056 310.7 27.312C311.26 27.568 311.756 27.88 312.188 28.248L310.844 30.048C310.54 29.776 310.228 29.568 309.908 29.424C309.588 29.264 309.244 29.184 308.876 29.184C307.932 29.184 307.156 29.544 306.548 30.264C305.956 30.984 305.66 31.936 305.66 33.12C305.66 34.288 305.948 35.232 306.524 35.952C307.116 36.672 307.876 37.032 308.804 37.032C309.268 37.032 309.7 36.936 310.1 36.744C310.516 36.536 310.892 36.296 311.228 36.024L312.356 37.848C311.812 38.328 311.204 38.688 310.532 38.928C309.86 39.168 309.188 39.288 308.516 39.288ZM319.136 39.288C318.048 39.288 317.064 39.048 316.184 38.568C315.304 38.072 314.608 37.368 314.096 36.456C313.584 35.528 313.328 34.416 313.328 33.12C313.328 31.84 313.584 30.736 314.096 29.808C314.624 28.88 315.304 28.168 316.136 27.672C316.968 27.176 317.84 26.928 318.752 26.928C319.824 26.928 320.72 27.168 321.44 27.648C322.16 28.112 322.704 28.768 323.072 29.616C323.44 30.448 323.624 31.416 323.624 32.52C323.624 33.096 323.584 33.544 323.504 33.864H316.016C316.144 34.904 316.52 35.712 317.144 36.288C317.768 36.864 318.552 37.152 319.496 37.152C320.008 37.152 320.48 37.08 320.912 36.936C321.36 36.776 321.8 36.56 322.232 36.288L323.168 38.016C322.608 38.384 321.984 38.688 321.296 38.928C320.608 39.168 319.888 39.288 319.136 39.288ZM315.992 31.992H321.224C321.224 31.08 321.024 30.368 320.624 29.856C320.224 29.328 319.624 29.064 318.824 29.064C318.136 29.064 317.52 29.32 316.976 29.832C316.448 30.328 316.12 31.048 315.992 31.992Z" fill="white"/>
<path d="M101.056 79.288C100.32 79.288 99.784 79.064 99.448 78.616C99.128 78.152 98.968 77.496 98.968 76.648V61.912H100.936V76.792C100.936 77.096 100.992 77.32 101.104 77.464C101.216 77.592 101.344 77.656 101.488 77.656C101.552 77.656 101.608 77.656 101.656 77.656C101.72 77.64 101.808 77.624 101.92 77.608L102.184 79.096C102.056 79.16 101.904 79.208 101.728 79.24C101.552 79.272 101.328 79.288 101.056 79.288ZM109.621 79.288C108.677 79.288 107.789 79.048 106.957 78.568C106.141 78.088 105.477 77.392 104.965 76.48C104.469 75.568 104.221 74.472 104.221 73.192C104.221 71.88 104.469 70.768 104.965 69.856C105.477 68.944 106.141 68.248 106.957 67.768C107.789 67.288 108.677 67.048 109.621 67.048C110.581 67.048 111.469 67.288 112.285 67.768C113.101 68.248 113.757 68.944 114.253 69.856C114.765 70.768 115.021 71.88 115.021 73.192C115.021 74.472 114.765 75.568 114.253 76.48C113.757 77.392 113.101 78.088 112.285 78.568C111.469 79.048 110.581 79.288 109.621 79.288ZM109.621 77.656C110.629 77.656 111.437 77.248 112.045 76.432C112.669 75.6 112.981 74.52 112.981 73.192C112.981 71.848 112.669 70.76 112.045 69.928C111.437 69.096 110.629 68.68 109.621 68.68C108.629 68.68 107.821 69.096 107.197 69.928C106.573 70.76 106.261 71.848 106.261 73.192C106.261 74.52 106.573 75.6 107.197 76.432C107.821 77.248 108.629 77.656 109.621 77.656ZM118.093 79V67.336H119.725L119.893 69.448H119.965C120.365 68.712 120.853 68.128 121.429 67.696C122.005 67.264 122.621 67.048 123.277 67.048C123.741 67.048 124.157 67.128 124.525 67.288L124.141 69.016C123.949 68.952 123.773 68.904 123.613 68.872C123.453 68.84 123.253 68.824 123.013 68.824C122.517 68.824 121.997 69.024 121.453 69.424C120.925 69.824 120.461 70.52 120.061 71.512V79H118.093ZM130.907 79.288C129.867 79.288 128.923 79.048 128.075 78.568C127.227 78.072 126.555 77.368 126.059 76.456C125.563 75.544 125.315 74.456 125.315 73.192C125.315 71.912 125.563 70.816 126.059 69.904C126.571 68.992 127.227 68.288 128.027 67.792C128.827 67.296 129.667 67.048 130.547 67.048C132.035 67.048 133.179 67.544 133.979 68.536C134.795 69.528 135.203 70.856 135.203 72.52C135.203 72.728 135.195 72.936 135.179 73.144C135.179 73.336 135.163 73.504 135.131 73.648H127.259C127.339 74.88 127.723 75.864 128.411 76.6C129.115 77.336 130.027 77.704 131.147 77.704C131.707 77.704 132.219 77.624 132.683 77.464C133.163 77.288 133.619 77.064 134.051 76.792L134.747 78.088C134.251 78.408 133.683 78.688 133.043 78.928C132.419 79.168 131.707 79.288 130.907 79.288ZM127.235 72.232H133.475C133.475 71.048 133.219 70.152 132.707 69.544C132.211 68.92 131.507 68.608 130.595 68.608C129.779 68.608 129.043 68.928 128.387 69.568C127.747 70.192 127.363 71.08 127.235 72.232ZM138.085 79V67.336H139.717L139.885 69.016H139.957C140.469 68.456 141.029 67.992 141.637 67.624C142.245 67.24 142.893 67.048 143.581 67.048C144.477 67.048 145.173 67.248 145.669 67.648C146.181 68.032 146.557 68.576 146.797 69.28C147.405 68.624 148.021 68.088 148.645 67.672C149.269 67.256 149.933 67.048 150.637 67.048C151.837 67.048 152.725 67.44 153.301 68.224C153.893 68.992 154.189 70.12 154.189 71.608V79H152.221V71.872C152.221 70.784 152.045 69.992 151.693 69.496C151.341 69 150.797 68.752 150.061 68.752C149.197 68.752 148.221 69.352 147.133 70.552V79H145.165V71.872C145.165 70.784 144.989 69.992 144.637 69.496C144.285 69 143.733 68.752 142.981 68.752C142.117 68.752 141.141 69.352 140.053 70.552V79H138.085ZM162.788 79V67.336H164.756V79H162.788ZM163.796 64.936C163.412 64.936 163.092 64.824 162.836 64.6C162.596 64.36 162.476 64.04 162.476 63.64C162.476 63.256 162.596 62.944 162.836 62.704C163.092 62.464 163.412 62.344 163.796 62.344C164.18 62.344 164.492 62.464 164.732 62.704C164.988 62.944 165.116 63.256 165.116 63.64C165.116 64.04 164.988 64.36 164.732 64.6C164.492 64.824 164.18 64.936 163.796 64.936ZM168.695 83.92V67.336H170.327L170.495 68.68H170.567C171.095 68.232 171.671 67.848 172.295 67.528C172.935 67.208 173.599 67.048 174.287 67.048C175.791 67.048 176.935 67.592 177.719 68.68C178.503 69.752 178.895 71.192 178.895 73C178.895 74.312 178.655 75.44 178.175 76.384C177.711 77.328 177.095 78.048 176.327 78.544C175.575 79.04 174.751 79.288 173.855 79.288C173.311 79.288 172.767 79.168 172.223 78.928C171.695 78.688 171.159 78.36 170.615 77.944L170.663 79.984V83.92H168.695ZM173.519 77.632C174.479 77.632 175.271 77.224 175.895 76.408C176.535 75.576 176.855 74.44 176.855 73C176.855 71.72 176.615 70.688 176.135 69.904C175.671 69.104 174.887 68.704 173.783 68.704C173.287 68.704 172.783 68.84 172.271 69.112C171.775 69.384 171.239 69.776 170.663 70.288V76.408C171.191 76.856 171.703 77.176 172.199 77.368C172.695 77.544 173.135 77.632 173.519 77.632ZM185.055 79.288C184.223 79.288 183.431 79.136 182.679 78.832C181.927 78.512 181.271 78.128 180.711 77.68L181.695 76.36C182.207 76.76 182.735 77.096 183.279 77.368C183.823 77.624 184.439 77.752 185.127 77.752C185.895 77.752 186.471 77.576 186.855 77.224C187.239 76.856 187.431 76.424 187.431 75.928C187.431 75.528 187.295 75.192 187.023 74.92C186.767 74.648 186.431 74.424 186.015 74.248C185.615 74.056 185.199 73.88 184.767 73.72C184.223 73.512 183.687 73.28 183.159 73.024C182.631 72.752 182.199 72.408 181.863 71.992C181.527 71.56 181.359 71.016 181.359 70.36C181.359 69.416 181.711 68.632 182.415 68.008C183.135 67.368 184.127 67.048 185.391 67.048C186.111 67.048 186.783 67.176 187.407 67.432C188.031 67.688 188.567 68 189.015 68.368L188.055 69.616C187.655 69.312 187.239 69.064 186.807 68.872C186.375 68.68 185.903 68.584 185.391 68.584C184.655 68.584 184.111 68.752 183.759 69.088C183.423 69.424 183.255 69.816 183.255 70.264C183.255 70.632 183.375 70.936 183.615 71.176C183.855 71.4 184.167 71.6 184.551 71.776C184.935 71.936 185.343 72.104 185.775 72.28C186.335 72.488 186.887 72.728 187.431 73C187.975 73.256 188.423 73.608 188.775 74.056C189.143 74.488 189.327 75.072 189.327 75.808C189.327 76.432 189.159 77.008 188.823 77.536C188.503 78.064 188.023 78.488 187.383 78.808C186.759 79.128 185.983 79.288 185.055 79.288ZM195.47 79.288C194.238 79.288 193.334 78.904 192.758 78.136C192.182 77.352 191.894 76.216 191.894 74.728V67.336H193.886V74.464C193.886 75.552 194.054 76.344 194.39 76.84C194.742 77.336 195.302 77.584 196.07 77.584C196.678 77.584 197.214 77.432 197.678 77.128C198.158 76.808 198.67 76.304 199.214 75.616V67.336H201.182V79H199.55L199.382 77.176H199.31C198.766 77.816 198.19 78.328 197.582 78.712C196.974 79.096 196.27 79.288 195.47 79.288ZM205.116 79V67.336H206.748L206.916 69.016H206.988C207.5 68.456 208.06 67.992 208.668 67.624C209.276 67.24 209.924 67.048 210.612 67.048C211.508 67.048 212.204 67.248 212.7 67.648C213.212 68.032 213.588 68.576 213.828 69.28C214.436 68.624 215.052 68.088 215.676 67.672C216.3 67.256 216.964 67.048 217.668 67.048C218.868 67.048 219.756 67.44 220.332 68.224C220.924 68.992 221.22 70.12 221.22 71.608V79H219.252V71.872C219.252 70.784 219.076 69.992 218.724 69.496C218.372 69 217.828 68.752 217.092 68.752C216.228 68.752 215.252 69.352 214.164 70.552V79H212.196V71.872C212.196 70.784 212.02 69.992 211.668 69.496C211.316 69 210.764 68.752 210.012 68.752C209.148 68.752 208.172 69.352 207.084 70.552V79H205.116ZM233.804 79.288C232.348 79.288 231.18 78.76 230.3 77.704C229.42 76.632 228.98 75.128 228.98 73.192C228.98 71.928 229.212 70.84 229.676 69.928C230.156 69 230.78 68.288 231.548 67.792C232.332 67.296 233.164 67.048 234.044 67.048C234.716 67.048 235.3 67.168 235.796 67.408C236.292 67.648 236.796 67.976 237.308 68.392L237.212 66.4V61.912H239.204V79H237.572L237.404 77.632H237.332C236.884 78.08 236.356 78.472 235.748 78.808C235.14 79.128 234.492 79.288 233.804 79.288ZM234.236 77.632C235.26 77.632 236.252 77.096 237.212 76.024V69.928C236.716 69.48 236.236 69.168 235.772 68.992C235.324 68.8 234.86 68.704 234.38 68.704C233.756 68.704 233.188 68.896 232.676 69.28C232.18 69.648 231.78 70.168 231.476 70.84C231.172 71.496 231.02 72.272 231.02 73.168C231.02 74.56 231.3 75.656 231.86 76.456C232.42 77.24 233.212 77.632 234.236 77.632ZM247.668 79.288C246.724 79.288 245.836 79.048 245.004 78.568C244.188 78.088 243.524 77.392 243.012 76.48C242.516 75.568 242.268 74.472 242.268 73.192C242.268 71.88 242.516 70.768 243.012 69.856C243.524 68.944 244.188 68.248 245.004 67.768C245.836 67.288 246.724 67.048 247.668 67.048C248.628 67.048 249.516 67.288 250.332 67.768C251.148 68.248 251.804 68.944 252.3 69.856C252.812 70.768 253.068 71.88 253.068 73.192C253.068 74.472 252.812 75.568 252.3 76.48C251.804 77.392 251.148 78.088 250.332 78.568C249.516 79.048 248.628 79.288 247.668 79.288ZM247.668 77.656C248.676 77.656 249.484 77.248 250.092 76.432C250.716 75.6 251.028 74.52 251.028 73.192C251.028 71.848 250.716 70.76 250.092 69.928C249.484 69.096 248.676 68.68 247.668 68.68C246.676 68.68 245.868 69.096 245.244 69.928C244.62 70.76 244.308 71.848 244.308 73.192C244.308 74.52 244.62 75.6 245.244 76.432C245.868 77.248 246.676 77.656 247.668 77.656ZM258.228 79.288C257.492 79.288 256.956 79.064 256.62 78.616C256.3 78.152 256.14 77.496 256.14 76.648V61.912H258.108V76.792C258.108 77.096 258.164 77.32 258.276 77.464C258.388 77.592 258.516 77.656 258.66 77.656C258.724 77.656 258.78 77.656 258.828 77.656C258.892 77.64 258.98 77.624 259.092 77.608L259.356 79.096C259.228 79.16 259.076 79.208 258.9 79.24C258.724 79.272 258.5 79.288 258.228 79.288ZM266.793 79.288C265.849 79.288 264.961 79.048 264.129 78.568C263.313 78.088 262.649 77.392 262.137 76.48C261.641 75.568 261.393 74.472 261.393 73.192C261.393 71.88 261.641 70.768 262.137 69.856C262.649 68.944 263.313 68.248 264.129 67.768C264.961 67.288 265.849 67.048 266.793 67.048C267.753 67.048 268.641 67.288 269.457 67.768C270.273 68.248 270.929 68.944 271.425 69.856C271.937 70.768 272.193 71.88 272.193 73.192C272.193 74.472 271.937 75.568 271.425 76.48C270.929 77.392 270.273 78.088 269.457 78.568C268.641 79.048 267.753 79.288 266.793 79.288ZM266.793 77.656C267.801 77.656 268.609 77.248 269.217 76.432C269.841 75.6 270.153 74.52 270.153 73.192C270.153 71.848 269.841 70.76 269.217 69.928C268.609 69.096 267.801 68.68 266.793 68.68C265.801 68.68 264.993 69.096 264.369 69.928C263.745 70.76 263.433 71.848 263.433 73.192C263.433 74.52 263.745 75.6 264.369 76.432C264.993 77.248 265.801 77.656 266.793 77.656ZM275.265 79V67.336H276.897L277.065 69.448H277.137C277.537 68.712 278.025 68.128 278.601 67.696C279.177 67.264 279.793 67.048 280.449 67.048C280.913 67.048 281.329 67.128 281.697 67.288L281.313 69.016C281.121 68.952 280.945 68.904 280.785 68.872C280.625 68.84 280.425 68.824 280.185 68.824C279.689 68.824 279.169 69.024 278.625 69.424C278.097 69.824 277.633 70.52 277.233 71.512V79H275.265ZM291.438 79.288C290.606 79.288 289.814 79.136 289.062 78.832C288.31 78.512 287.654 78.128 287.094 77.68L288.078 76.36C288.59 76.76 289.118 77.096 289.662 77.368C290.206 77.624 290.822 77.752 291.51 77.752C292.278 77.752 292.854 77.576 293.238 77.224C293.622 76.856 293.814 76.424 293.814 75.928C293.814 75.528 293.678 75.192 293.406 74.92C293.15 74.648 292.814 74.424 292.398 74.248C291.998 74.056 291.582 73.88 291.15 73.72C290.606 73.512 290.07 73.28 289.542 73.024C289.014 72.752 288.582 72.408 288.246 71.992C287.91 71.56 287.742 71.016 287.742 70.36C287.742 69.416 288.094 68.632 288.798 68.008C289.518 67.368 290.51 67.048 291.774 67.048C292.494 67.048 293.166 67.176 293.79 67.432C294.414 67.688 294.95 68 295.398 68.368L294.438 69.616C294.038 69.312 293.622 69.064 293.19 68.872C292.758 68.68 292.286 68.584 291.774 68.584C291.038 68.584 290.494 68.752 290.142 69.088C289.806 69.424 289.638 69.816 289.638 70.264C289.638 70.632 289.758 70.936 289.998 71.176C290.238 71.4 290.55 71.6 290.934 71.776C291.318 71.936 291.726 72.104 292.158 72.28C292.718 72.488 293.27 72.728 293.814 73C294.358 73.256 294.806 73.608 295.158 74.056C295.526 74.488 295.71 75.072 295.71 75.808C295.71 76.432 295.542 77.008 295.206 77.536C294.886 78.064 294.406 78.488 293.766 78.808C293.142 79.128 292.366 79.288 291.438 79.288ZM298.445 79V67.336H300.413V79H298.445ZM299.453 64.936C299.069 64.936 298.749 64.824 298.493 64.6C298.253 64.36 298.133 64.04 298.133 63.64C298.133 63.256 298.253 62.944 298.493 62.704C298.749 62.464 299.069 62.344 299.453 62.344C299.837 62.344 300.149 62.464 300.389 62.704C300.645 62.944 300.773 63.256 300.773 63.64C300.773 64.04 300.645 64.36 300.389 64.6C300.149 64.824 299.837 64.936 299.453 64.936ZM308.023 79.288C306.775 79.288 305.903 78.928 305.407 78.208C304.927 77.488 304.687 76.552 304.687 75.4V68.944H302.959V67.456L304.783 67.336L305.023 64.072H306.679V67.336H309.823V68.944H306.679V75.424C306.679 76.144 306.807 76.704 307.063 77.104C307.335 77.488 307.807 77.68 308.479 77.68C308.687 77.68 308.911 77.648 309.151 77.584C309.391 77.504 309.607 77.432 309.799 77.368L310.183 78.856C309.863 78.968 309.511 79.064 309.127 79.144C308.759 79.24 308.391 79.288 308.023 79.288ZM101.656 109.288C100.68 109.288 99.864 109 99.208 108.424C98.568 107.832 98.248 107.016 98.248 105.976C98.248 104.696 98.816 103.72 99.952 103.048C101.104 102.36 102.92 101.88 105.4 101.608C105.4 101.112 105.328 100.64 105.184 100.192C105.056 99.744 104.816 99.384 104.464 99.112C104.128 98.824 103.64 98.68 103 98.68C102.328 98.68 101.696 98.808 101.104 99.064C100.512 99.32 99.984 99.608 99.52 99.928L98.752 98.56C99.296 98.208 99.96 97.872 100.744 97.552C101.544 97.216 102.408 97.048 103.336 97.048C104.76 97.048 105.792 97.488 106.432 98.368C107.072 99.232 107.392 100.392 107.392 101.848V109H105.76L105.592 107.608H105.52C104.976 108.056 104.376 108.448 103.72 108.784C103.08 109.12 102.392 109.288 101.656 109.288ZM102.232 107.704C102.792 107.704 103.32 107.568 103.816 107.296C104.312 107.024 104.84 106.64 105.4 106.144V102.904C103.464 103.144 102.104 103.504 101.32 103.984C100.552 104.464 100.168 105.08 100.168 105.832C100.168 106.488 100.368 106.968 100.768 107.272C101.168 107.56 101.656 107.704 102.232 107.704ZM111.062 109V97.336H112.694L112.862 99.016H112.934C113.446 98.456 114.006 97.992 114.614 97.624C115.222 97.24 115.87 97.048 116.558 97.048C117.454 97.048 118.15 97.248 118.646 97.648C119.158 98.032 119.534 98.576 119.774 99.28C120.382 98.624 120.998 98.088 121.622 97.672C122.246 97.256 122.91 97.048 123.614 97.048C124.814 97.048 125.702 97.44 126.278 98.224C126.87 98.992 127.166 100.12 127.166 101.608V109H125.198V101.872C125.198 100.784 125.022 99.992 124.67 99.496C124.318 99 123.774 98.752 123.038 98.752C122.174 98.752 121.198 99.352 120.11 100.552V109H118.142V101.872C118.142 100.784 117.966 99.992 117.614 99.496C117.262 99 116.71 98.752 115.958 98.752C115.094 98.752 114.118 99.352 113.03 100.552V109H111.062ZM135.688 109.288C134.648 109.288 133.704 109.048 132.856 108.568C132.008 108.072 131.336 107.368 130.84 106.456C130.344 105.544 130.096 104.456 130.096 103.192C130.096 101.912 130.344 100.816 130.84 99.904C131.352 98.992 132.008 98.288 132.808 97.792C133.608 97.296 134.448 97.048 135.328 97.048C136.816 97.048 137.96 97.544 138.76 98.536C139.576 99.528 139.984 100.856 139.984 102.52C139.984 102.728 139.976 102.936 139.96 103.144C139.96 103.336 139.944 103.504 139.912 103.648H132.04C132.12 104.88 132.504 105.864 133.192 106.6C133.896 107.336 134.808 107.704 135.928 107.704C136.488 107.704 137 107.624 137.464 107.464C137.944 107.288 138.4 107.064 138.832 106.792L139.528 108.088C139.032 108.408 138.464 108.688 137.824 108.928C137.2 109.168 136.488 109.288 135.688 109.288ZM132.016 102.232H138.256C138.256 101.048 138 100.152 137.488 99.544C136.992 98.92 136.288 98.608 135.376 98.608C134.56 98.608 133.824 98.928 133.168 99.568C132.528 100.192 132.144 101.08 132.016 102.232ZM146.304 109.288C145.056 109.288 144.184 108.928 143.688 108.208C143.208 107.488 142.968 106.552 142.968 105.4V98.944H141.24V97.456L143.064 97.336L143.304 94.072H144.96V97.336H148.104V98.944H144.96V105.424C144.96 106.144 145.088 106.704 145.344 107.104C145.616 107.488 146.088 107.68 146.76 107.68C146.968 107.68 147.192 107.648 147.432 107.584C147.672 107.504 147.888 107.432 148.08 107.368L148.464 108.856C148.144 108.968 147.792 109.064 147.408 109.144C147.04 109.24 146.672 109.288 146.304 109.288ZM150.546 113.08L150.066 111.928C150.754 111.624 151.29 111.216 151.674 110.704C152.058 110.208 152.242 109.64 152.226 109C152.194 109.016 152.154 109.024 152.105 109.024C152.058 109.024 152.018 109.024 151.986 109.024C151.602 109.024 151.266 108.912 150.978 108.688C150.706 108.448 150.57 108.104 150.57 107.656C150.57 107.224 150.714 106.888 151.002 106.648C151.29 106.392 151.634 106.264 152.034 106.264C152.546 106.264 152.946 106.472 153.234 106.888C153.538 107.304 153.69 107.872 153.69 108.592C153.69 109.616 153.41 110.512 152.85 111.28C152.29 112.064 151.522 112.664 150.546 113.08ZM161.232 109.288C160.208 109.288 159.28 109.048 158.448 108.568C157.616 108.088 156.96 107.392 156.48 106.48C156 105.568 155.76 104.472 155.76 103.192C155.76 101.88 156.016 100.768 156.528 99.856C157.056 98.944 157.744 98.248 158.592 97.768C159.456 97.288 160.384 97.048 161.376 97.048C162.144 97.048 162.8 97.184 163.344 97.456C163.904 97.728 164.384 98.048 164.784 98.416L163.776 99.712C163.44 99.408 163.08 99.16 162.696 98.968C162.328 98.776 161.912 98.68 161.448 98.68C160.744 98.68 160.112 98.872 159.552 99.256C159.008 99.624 158.576 100.152 158.256 100.84C157.952 101.512 157.8 102.296 157.8 103.192C157.8 104.52 158.128 105.6 158.784 106.432C159.456 107.248 160.328 107.656 161.4 107.656C161.944 107.656 162.448 107.544 162.912 107.32C163.376 107.08 163.784 106.8 164.136 106.48L165 107.8C164.472 108.264 163.888 108.632 163.248 108.904C162.608 109.16 161.936 109.288 161.232 109.288ZM171.59 109.288C170.646 109.288 169.758 109.048 168.926 108.568C168.11 108.088 167.446 107.392 166.934 106.48C166.438 105.568 166.19 104.472 166.19 103.192C166.19 101.88 166.438 100.768 166.934 99.856C167.446 98.944 168.11 98.248 168.926 97.768C169.758 97.288 170.646 97.048 171.59 97.048C172.55 97.048 173.438 97.288 174.254 97.768C175.07 98.248 175.726 98.944 176.222 99.856C176.734 100.768 176.99 101.88 176.99 103.192C176.99 104.472 176.734 105.568 176.222 106.48C175.726 107.392 175.07 108.088 174.254 108.568C173.438 109.048 172.55 109.288 171.59 109.288ZM171.59 107.656C172.598 107.656 173.406 107.248 174.014 106.432C174.638 105.6 174.95 104.52 174.95 103.192C174.95 101.848 174.638 100.76 174.014 99.928C173.406 99.096 172.598 98.68 171.59 98.68C170.598 98.68 169.79 99.096 169.166 99.928C168.542 100.76 168.23 101.848 168.23 103.192C168.23 104.52 168.542 105.6 169.166 106.432C169.79 107.248 170.598 107.656 171.59 107.656ZM180.062 109V97.336H181.694L181.862 99.016H181.934C182.494 98.456 183.086 97.992 183.71 97.624C184.334 97.24 185.046 97.048 185.846 97.048C187.078 97.048 187.974 97.44 188.534 98.224C189.11 98.992 189.398 100.12 189.398 101.608V109H187.43V101.872C187.43 100.784 187.254 99.992 186.902 99.496C186.55 99 185.99 98.752 185.222 98.752C184.63 98.752 184.094 98.904 183.614 99.208C183.15 99.512 182.622 99.96 182.03 100.552V109H180.062ZM193.187 109V97.336H194.819L194.987 99.016H195.059C195.619 98.456 196.211 97.992 196.835 97.624C197.459 97.24 198.171 97.048 198.971 97.048C200.203 97.048 201.099 97.44 201.659 98.224C202.235 98.992 202.523 100.12 202.523 101.608V109H200.555V101.872C200.555 100.784 200.379 99.992 200.027 99.496C199.675 99 199.115 98.752 198.347 98.752C197.755 98.752 197.219 98.904 196.739 99.208C196.275 99.512 195.747 99.96 195.155 100.552V109H193.187ZM211.04 109.288C210 109.288 209.056 109.048 208.208 108.568C207.36 108.072 206.688 107.368 206.192 106.456C205.696 105.544 205.448 104.456 205.448 103.192C205.448 101.912 205.696 100.816 206.192 99.904C206.704 98.992 207.36 98.288 208.16 97.792C208.96 97.296 209.8 97.048 210.68 97.048C212.168 97.048 213.312 97.544 214.112 98.536C214.928 99.528 215.336 100.856 215.336 102.52C215.336 102.728 215.328 102.936 215.312 103.144C215.312 103.336 215.296 103.504 215.264 103.648H207.392C207.472 104.88 207.856 105.864 208.544 106.6C209.248 107.336 210.16 107.704 211.28 107.704C211.84 107.704 212.352 107.624 212.816 107.464C213.296 107.288 213.752 107.064 214.184 106.792L214.88 108.088C214.384 108.408 213.816 108.688 213.176 108.928C212.552 109.168 211.84 109.288 211.04 109.288ZM207.368 102.232H213.608C213.608 101.048 213.352 100.152 212.84 99.544C212.344 98.92 211.64 98.608 210.728 98.608C209.912 98.608 209.176 98.928 208.52 99.568C207.88 100.192 207.496 101.08 207.368 102.232ZM222.826 109.288C221.802 109.288 220.874 109.048 220.042 108.568C219.21 108.088 218.554 107.392 218.074 106.48C217.594 105.568 217.354 104.472 217.354 103.192C217.354 101.88 217.61 100.768 218.122 99.856C218.65 98.944 219.338 98.248 220.186 97.768C221.05 97.288 221.978 97.048 222.97 97.048C223.738 97.048 224.394 97.184 224.938 97.456C225.498 97.728 225.978 98.048 226.378 98.416L225.37 99.712C225.034 99.408 224.674 99.16 224.29 98.968C223.922 98.776 223.506 98.68 223.042 98.68C222.338 98.68 221.706 98.872 221.146 99.256C220.602 99.624 220.17 100.152 219.85 100.84C219.546 101.512 219.394 102.296 219.394 103.192C219.394 104.52 219.722 105.6 220.378 106.432C221.05 107.248 221.922 107.656 222.994 107.656C223.538 107.656 224.042 107.544 224.506 107.32C224.97 107.08 225.378 106.8 225.73 106.48L226.594 107.8C226.066 108.264 225.482 108.632 224.842 108.904C224.202 109.16 223.53 109.288 222.826 109.288ZM232.601 109.288C231.353 109.288 230.481 108.928 229.985 108.208C229.505 107.488 229.265 106.552 229.265 105.4V98.944H227.537V97.456L229.361 97.336L229.601 94.072H231.257V97.336H234.401V98.944H231.257V105.424C231.257 106.144 231.385 106.704 231.641 107.104C231.913 107.488 232.385 107.68 233.057 107.68C233.265 107.68 233.489 107.648 233.729 107.584C233.969 107.504 234.185 107.432 234.377 107.368L234.761 108.856C234.441 108.968 234.089 109.064 233.705 109.144C233.337 109.24 232.969 109.288 232.601 109.288ZM241.246 109.288C240.302 109.288 239.414 109.048 238.582 108.568C237.766 108.088 237.102 107.392 236.59 106.48C236.094 105.568 235.846 104.472 235.846 103.192C235.846 101.88 236.094 100.768 236.59 99.856C237.102 98.944 237.766 98.248 238.582 97.768C239.414 97.288 240.302 97.048 241.246 97.048C242.206 97.048 243.094 97.288 243.91 97.768C244.726 98.248 245.382 98.944 245.878 99.856C246.39 100.768 246.646 101.88 246.646 103.192C246.646 104.472 246.39 105.568 245.878 106.48C245.382 107.392 244.726 108.088 243.91 108.568C243.094 109.048 242.206 109.288 241.246 109.288ZM241.246 107.656C242.254 107.656 243.062 107.248 243.67 106.432C244.294 105.6 244.606 104.52 244.606 103.192C244.606 101.848 244.294 100.76 243.67 99.928C243.062 99.096 242.254 98.68 241.246 98.68C240.254 98.68 239.446 99.096 238.822 99.928C238.198 100.76 237.886 101.848 237.886 103.192C237.886 104.52 238.198 105.6 238.822 106.432C239.446 107.248 240.254 107.656 241.246 107.656ZM249.718 109V97.336H251.35L251.518 99.448H251.59C251.99 98.712 252.478 98.128 253.054 97.696C253.63 97.264 254.246 97.048 254.902 97.048C255.366 97.048 255.782 97.128 256.15 97.288L255.766 99.016C255.574 98.952 255.398 98.904 255.238 98.872C255.078 98.84 254.878 98.824 254.638 98.824C254.142 98.824 253.622 99.024 253.078 99.424C252.55 99.824 252.086 100.52 251.686 101.512V109H249.718ZM265.531 109.288C264.555 109.288 263.739 109 263.083 108.424C262.443 107.832 262.123 107.016 262.123 105.976C262.123 104.696 262.691 103.72 263.827 103.048C264.979 102.36 266.795 101.88 269.275 101.608C269.275 101.112 269.203 100.64 269.059 100.192C268.931 99.744 268.691 99.384 268.339 99.112C268.003 98.824 267.515 98.68 266.875 98.68C266.203 98.68 265.571 98.808 264.979 99.064C264.387 99.32 263.859 99.608 263.395 99.928L262.627 98.56C263.171 98.208 263.835 97.872 264.619 97.552C265.419 97.216 266.283 97.048 267.211 97.048C268.635 97.048 269.667 97.488 270.307 98.368C270.947 99.232 271.267 100.392 271.267 101.848V109H269.635L269.467 107.608H269.395C268.851 108.056 268.251 108.448 267.595 108.784C266.955 109.12 266.267 109.288 265.531 109.288ZM266.107 107.704C266.667 107.704 267.195 107.568 267.691 107.296C268.187 107.024 268.715 106.64 269.275 106.144V102.904C267.339 103.144 265.979 103.504 265.195 103.984C264.427 104.464 264.043 105.08 264.043 105.832C264.043 106.488 264.243 106.968 264.643 107.272C265.043 107.56 265.531 107.704 266.107 107.704ZM278.921 109.288C277.465 109.288 276.297 108.76 275.417 107.704C274.537 106.632 274.097 105.128 274.097 103.192C274.097 101.928 274.329 100.84 274.793 99.928C275.273 99 275.897 98.288 276.665 97.792C277.449 97.296 278.281 97.048 279.161 97.048C279.833 97.048 280.417 97.168 280.913 97.408C281.409 97.648 281.913 97.976 282.425 98.392L282.329 96.4V91.912H284.321V109H282.689L282.521 107.632H282.449C282.001 108.08 281.473 108.472 280.865 108.808C280.257 109.128 279.609 109.288 278.921 109.288ZM279.353 107.632C280.377 107.632 281.369 107.096 282.329 106.024V99.928C281.833 99.48 281.353 99.168 280.889 98.992C280.441 98.8 279.977 98.704 279.497 98.704C278.873 98.704 278.305 98.896 277.793 99.28C277.297 99.648 276.897 100.168 276.593 100.84C276.289 101.496 276.137 102.272 276.137 103.168C276.137 104.56 276.417 105.656 276.977 106.456C277.537 107.24 278.329 107.632 279.353 107.632ZM288.249 109V97.336H290.217V109H288.249ZM289.257 94.936C288.873 94.936 288.553 94.824 288.297 94.6C288.057 94.36 287.937 94.04 287.937 93.64C287.937 93.256 288.057 92.944 288.297 92.704C288.553 92.464 288.873 92.344 289.257 92.344C289.641 92.344 289.953 92.464 290.193 92.704C290.449 92.944 290.577 93.256 290.577 93.64C290.577 94.04 290.449 94.36 290.193 94.6C289.953 94.824 289.641 94.936 289.257 94.936ZM298.764 109.288C297.74 109.288 296.812 109.048 295.98 108.568C295.148 108.088 294.492 107.392 294.012 106.48C293.532 105.568 293.292 104.472 293.292 103.192C293.292 101.88 293.548 100.768 294.06 99.856C294.588 98.944 295.276 98.248 296.124 97.768C296.988 97.288 297.916 97.048 298.908 97.048C299.676 97.048 300.332 97.184 300.876 97.456C301.436 97.728 301.916 98.048 302.316 98.416L301.308 99.712C300.972 99.408 300.612 99.16 300.228 98.968C299.86 98.776 299.444 98.68 298.98 98.68C298.276 98.68 297.644 98.872 297.084 99.256C296.54 99.624 296.108 100.152 295.788 100.84C295.484 101.512 295.332 102.296 295.332 103.192C295.332 104.52 295.66 105.6 296.316 106.432C296.988 107.248 297.86 107.656 298.932 107.656C299.476 107.656 299.98 107.544 300.444 107.32C300.908 107.08 301.316 106.8 301.668 106.48L302.532 107.8C302.004 108.264 301.42 108.632 300.78 108.904C300.14 109.16 299.468 109.288 298.764 109.288ZM305.101 109V97.336H307.069V109H305.101ZM306.109 94.936C305.725 94.936 305.405 94.824 305.149 94.6C304.909 94.36 304.789 94.04 304.789 93.64C304.789 93.256 304.909 92.944 305.149 92.704C305.405 92.464 305.725 92.344 306.109 92.344C306.493 92.344 306.805 92.464 307.045 92.704C307.301 92.944 307.429 93.256 307.429 93.64C307.429 94.04 307.301 94.36 307.045 94.6C306.805 94.824 306.493 94.936 306.109 94.936ZM311.007 113.92V97.336H312.639L312.807 98.68H312.879C313.407 98.232 313.983 97.848 314.607 97.528C315.247 97.208 315.911 97.048 316.599 97.048C318.103 97.048 319.247 97.592 320.031 98.68C320.815 99.752 321.207 101.192 321.207 103C321.207 104.312 320.967 105.44 320.487 106.384C320.023 107.328 319.407 108.048 318.639 108.544C317.887 109.04 317.063 109.288 316.167 109.288C315.623 109.288 315.079 109.168 314.535 108.928C314.007 108.688 313.471 108.36 312.927 107.944L312.975 109.984V113.92H311.007ZM315.831 107.632C316.791 107.632 317.583 107.224 318.207 106.408C318.847 105.576 319.167 104.44 319.167 103C319.167 101.72 318.927 100.688 318.447 99.904C317.983 99.104 317.199 98.704 316.095 98.704C315.599 98.704 315.095 98.84 314.583 99.112C314.087 99.384 313.551 99.776 312.975 100.288V106.408C313.503 106.856 314.015 107.176 314.511 107.368C315.007 107.544 315.447 107.632 315.831 107.632ZM326.679 109.288C325.703 109.288 324.887 109 324.231 108.424C323.591 107.832 323.271 107.016 323.271 105.976C323.271 104.696 323.839 103.72 324.975 103.048C326.127 102.36 327.943 101.88 330.423 101.608C330.423 101.112 330.351 100.64 330.207 100.192C330.079 99.744 329.839 99.384 329.487 99.112C329.151 98.824 328.663 98.68 328.023 98.68C327.351 98.68 326.719 98.808 326.127 99.064C325.535 99.32 325.007 99.608 324.543 99.928L323.775 98.56C324.319 98.208 324.983 97.872 325.767 97.552C326.567 97.216 327.431 97.048 328.359 97.048C329.783 97.048 330.815 97.488 331.455 98.368C332.095 99.232 332.415 100.392 332.415 101.848V109H330.783L330.615 107.608H330.543C329.999 108.056 329.399 108.448 328.743 108.784C328.103 109.12 327.415 109.288 326.679 109.288ZM327.255 107.704C327.815 107.704 328.343 107.568 328.839 107.296C329.335 107.024 329.863 106.64 330.423 106.144V102.904C328.487 103.144 327.127 103.504 326.343 103.984C325.575 104.464 325.191 105.08 325.191 105.832C325.191 106.488 325.391 106.968 325.791 107.272C326.191 107.56 326.679 107.704 327.255 107.704ZM336.421 109V98.944H334.837V97.456L336.421 97.336V95.488C336.421 94.304 336.693 93.368 337.237 92.68C337.797 91.976 338.661 91.624 339.829 91.624C340.197 91.624 340.549 91.664 340.885 91.744C341.221 91.808 341.517 91.896 341.773 92.008L341.341 93.52C340.909 93.328 340.469 93.232 340.021 93.232C338.933 93.232 338.389 93.984 338.389 95.488V97.336H340.861V98.944H338.389V109H336.421ZM346.701 114.376C345.277 114.376 344.117 114.104 343.221 113.56C342.325 113.016 341.877 112.24 341.877 111.232C341.877 110.736 342.029 110.256 342.333 109.792C342.637 109.344 343.053 108.944 343.581 108.592V108.496C343.293 108.32 343.045 108.072 342.837 107.752C342.645 107.432 342.549 107.048 342.549 106.6C342.549 106.104 342.685 105.672 342.957 105.304C343.229 104.936 343.517 104.648 343.821 104.44V104.344C343.437 104.024 343.085 103.592 342.765 103.048C342.461 102.504 342.309 101.888 342.309 101.2C342.309 100.352 342.509 99.616 342.909 98.992C343.309 98.368 343.845 97.888 344.517 97.552C345.189 97.216 345.917 97.048 346.701 97.048C347.021 97.048 347.325 97.08 347.613 97.144C347.901 97.192 348.149 97.256 348.357 97.336H352.413V98.848H350.013C350.285 99.104 350.509 99.448 350.685 99.88C350.877 100.296 350.973 100.752 350.973 101.248C350.973 102.08 350.781 102.8 350.397 103.408C350.013 104.016 349.501 104.488 348.861 104.824C348.221 105.144 347.501 105.304 346.701 105.304C346.077 105.304 345.493 105.168 344.949 104.896C344.741 105.072 344.565 105.272 344.421 105.496C344.277 105.704 344.205 105.968 344.205 106.288C344.205 106.656 344.349 106.96 344.637 107.2C344.941 107.44 345.485 107.56 346.269 107.56H348.525C349.885 107.56 350.901 107.784 351.573 108.232C352.261 108.664 352.605 109.368 352.605 110.344C352.605 111.064 352.365 111.728 351.885 112.336C351.405 112.944 350.725 113.432 349.845 113.8C348.965 114.184 347.917 114.376 346.701 114.376ZM346.701 103.984C347.373 103.984 347.949 103.736 348.429 103.24C348.925 102.728 349.173 102.048 349.173 101.2C349.173 100.352 348.933 99.688 348.453 99.208C347.973 98.728 347.389 98.488 346.701 98.488C346.013 98.488 345.429 98.728 344.949 99.208C344.469 99.688 344.229 100.352 344.229 101.2C344.229 102.048 344.469 102.728 344.949 103.24C345.445 103.736 346.029 103.984 346.701 103.984ZM346.989 113.008C348.109 113.008 349.005 112.76 349.677 112.264C350.349 111.784 350.685 111.24 350.685 110.632C350.685 110.088 350.477 109.712 350.061 109.504C349.661 109.296 349.085 109.192 348.333 109.192H346.317C346.093 109.192 345.845 109.176 345.573 109.144C345.317 109.112 345.061 109.064 344.805 109C344.389 109.304 344.085 109.624 343.893 109.96C343.701 110.296 343.605 110.632 343.605 110.968C343.605 111.592 343.901 112.088 344.493 112.456C345.101 112.824 345.933 113.008 346.989 113.008Z" fill="#E9F7F8"/>
<path d="M40 44C40.2652 44 40.5196 44.1054 40.7071 44.2929C40.8946 44.4804 41 44.7348 41 45C41 45.2652 41.1054 45.5196 41.2929 45.7071C41.4804 45.8946 41.7348 46 42 46C42.2652 46 42.5196 46.1054 42.7071 46.2929C42.8946 46.4804 43 46.7348 43 47V48C43 48.2652 42.8946 48.5196 42.7071 48.7071C42.5196 48.8946 42.2652 49 42 49H32C31.7348 49 31.4804 48.8946 31.2929 48.7071C31.1054 48.5196 31 48.2652 31 48V47C31 46.7348 31.1054 46.4804 31.2929 46.2929C31.4804 46.1054 31.7348 46 32 46C32.2652 46 32.5196 45.8946 32.7071 45.7071C32.8946 45.5196 33 45.2652 33 45C33 44.7348 33.1054 44.4804 33.2929 44.2929C33.4804 44.1054 33.7348 44 34 44H40Z" fill="black"/>
<path d="M27 49C27 48.7348 27.1054 48.4804 27.2929 48.2929C27.4804 48.1054 27.7348 48 28 48H29C29.2652 48 29.5196 47.8946 29.7071 47.7071C29.8946 47.5196 30 47.2652 30 47C30 46.7348 29.8946 46.4804 29.7071 46.2929C29.5196 46.1054 29.2652 46 29 46H28C27.2044 46 26.4413 46.3161 25.8787 46.8787C25.3161 47.4413 25 48.2044 25 49V73C25 73.7956 25.3161 74.5587 25.8787 75.1213C26.4413 75.6839 27.2044 76 28 76H46C46.7956 76 47.5587 75.6839 48.1213 75.1213C48.6839 74.5587 49 73.7956 49 73V49C49 48.2044 48.6839 47.4413 48.1213 46.8787C47.5587 46.3161 46.7956 46 46 46H45C44.7348 46 44.4804 46.1054 44.2929 46.2929C44.1054 46.4804 44 46.7348 44 47C44 47.2652 44.1054 47.5196 44.2929 47.7071C44.4804 47.8946 44.7348 48 45 48H46C46.2652 48 46.5196 48.1054 46.7071 48.2929C46.8946 48.4804 47 48.7348 47 49V73C47 73.2652 46.8946 73.5196 46.7071 73.7071C46.5196 73.8946 46.2652 74 46 74H28C27.7348 74 27.4804 73.8946 27.2929 73.7071C27.1054 73.5196 27 73.2652 27 73V49Z" fill="black"/>
<path d="M38 57C38 56.7348 37.8946 56.4804 37.7071 56.2929C37.5196 56.1054 37.2652 56 37 56C36.7348 56 36.4804 56.1054 36.2929 56.2929C36.1054 56.4804 36 56.7348 36 57V60H33C32.7348 60 32.4804 60.1054 32.2929 60.2929C32.1054 60.4804 32 60.7348 32 61C32 61.2652 32.1054 61.5196 32.2929 61.7071C32.4804 61.8946 32.7348 62 33 62H36V65C36 65.2652 36.1054 65.5196 36.2929 65.7071C36.4804 65.8946 36.7348 66 37 66C37.2652 66 37.5196 65.8946 37.7071 65.7071C37.8946 65.5196 38 65.2652 38 65V62H41C41.2652 62 41.5196 61.8946 41.7071 61.7071C41.8946 61.5196 42 61.2652 42 61C42 60.7348 41.8946 60.4804 41.7071 60.2929C41.5196 60.1054 41.2652 60 41 60H38V57Z" fill="black"/>
</svg>
